<svg width="229" height="197" viewBox="0 0 229 197" fill="none" xmlns="http://www.w3.org/2000/svg">
    <rect width="229" height="197" fill="white"/>
    <path d="M76.9495 175.325L76.263 176.958H75.7207L78.4667 170.361H78.9472L81.6932 176.958H81.1234L80.4369 175.325H76.9495ZM80.2379 174.851L78.707 171.075H78.6726L77.1418 174.851H80.2379Z" fill="#231F20"/>
    <path d="M85.7363 170.361H88.4274C88.9044 170.361 89.3619 170.551 89.6992 170.888C90.0365 171.225 90.226 171.683 90.226 172.16C90.226 172.637 90.0365 173.094 89.6992 173.432C89.3619 173.769 88.9044 173.958 88.4274 173.958H86.2512V176.958H85.7363V170.361ZM89.7317 172.194C89.721 171.837 89.5717 171.498 89.3153 171.25C89.059 171.001 88.7159 170.862 88.3587 170.862H86.2512V173.54H88.3656C88.7239 173.538 89.0672 173.396 89.3225 173.145C89.5777 172.894 89.7246 172.552 89.7317 172.194Z" fill="#231F20"/>
    <path d="M94.6077 175.325L93.9212 176.958H93.3789L96.1249 170.361H96.6054L99.3514 176.958H98.7816L98.0951 175.325H94.6077ZM97.8961 174.851L96.3652 171.075L94.8343 174.851H97.8961Z" fill="#231F20"/>
    <path d="M108.027 177C107.725 177 107.272 176.828 107.272 175.751C107.272 173.966 106.339 173.842 106.037 173.842H103.908V176.972H103.387V170.375H106.071C106.298 170.362 106.526 170.394 106.741 170.469C106.956 170.545 107.153 170.661 107.323 170.813C107.493 170.965 107.631 171.149 107.729 171.354C107.828 171.559 107.885 171.782 107.897 172.009C107.9 172.363 107.786 172.708 107.572 172.99C107.359 173.272 107.058 173.475 106.716 173.567V173.616C106.716 173.616 107.773 173.78 107.773 175.503C107.773 176.684 108.027 176.664 108.268 176.78V176.966C108.19 176.988 108.109 176.999 108.027 177ZM107.389 172.098C107.391 171.929 107.359 171.761 107.294 171.604C107.23 171.448 107.135 171.305 107.014 171.186C106.894 171.067 106.751 170.974 106.593 170.911C106.436 170.848 106.268 170.818 106.098 170.821H103.908V173.355H106.098C106.267 173.356 106.434 173.325 106.59 173.262C106.746 173.199 106.888 173.106 107.008 172.988C107.128 172.87 107.223 172.729 107.289 172.574C107.354 172.419 107.388 172.253 107.389 172.085V172.098Z" fill="#231F20"/>
    <path d="M114.698 176.958H114.204V170.821H111.973V170.354H116.929V170.821H114.698V176.958Z" fill="#231F20"/>
    <path d="M127.372 170.952H127.324L124.681 176.958H124.187L121.565 170.952H121.517V176.958H121.057V170.361H121.88L124.455 176.293L127.057 170.361H127.874V176.958H127.359L127.372 170.952Z" fill="#231F20"/>
    <path d="M133.319 175.325L132.632 176.958H132.09L134.836 170.361H135.316L138.062 176.958H137.493L136.806 175.325H133.319ZM136.607 174.851L135.076 171.075L133.545 174.851H136.607Z" fill="#231F20"/>
    <path d="M142.592 171.357V176.958H142.125V170.361H142.571L146.244 175.97V170.361H146.704V176.958H146.244L142.592 171.357Z" fill="#231F20"/>
    <path d="M153.315 170.361V170.821H152.56V176.478H153.315V176.945H151.256V176.478H152.018V170.821H151.256V170.347L153.315 170.361Z" fill="#231F20"/>
    <path d="M40.7305 27L40.7305 143.705H188.328V27L40.7305 27Z" fill="white" stroke="#231F20" stroke-width="5" stroke-miterlimit="10"/>
    <path d="M40.7305 26.9999V61.3248L123.11 61.3248V26.9999L40.7305 26.9999Z" fill="#2F3890" stroke="#231F20" stroke-width="5" stroke-miterlimit="10"/>
    <path d="M40.7305 83.2928L40.7305 143.705H101.142V83.2928H40.7305Z" fill="#ED1C24" stroke="#231F20" stroke-width="5" stroke-miterlimit="10"/>
    <path d="M140.271 95.6498V143.705H188.326V95.6498H140.271Z" fill="#FFF200" stroke="#231F20" stroke-width="5" stroke-miterlimit="10"/>
    <path d="M123.109 26.9999V61.3248H157.434V26.9999H123.109Z" fill="white" stroke="#231F20" stroke-width="5" stroke-miterlimit="10"/>
    <path d="M101.141 110.066V143.705H140.271V110.066H101.141Z" fill="white" stroke="#231F20" stroke-width="5" stroke-miterlimit="10"/>
    <path d="M101.141 61.3249V95.6498H157.433V61.3249H101.141Z" fill="#414042" stroke="#231F20" stroke-width="5" stroke-miterlimit="10"/>
    <path d="M50.5812 161.073H43.6064L42.2815 164.279H39L45.6041 149.491H48.611L55.2151 164.279H51.9405L50.5812 161.073ZM44.5469 158.855H49.6682L47.8215 154.441L47.135 152.574L46.4485 154.441L44.5469 158.855Z" fill="#231F20"/>
    <path d="M56.8477 149.491H63.8362C70.7012 149.491 71.3877 154.393 71.3877 156.885C71.4426 159.226 70.7973 164.279 63.6989 164.279H56.8477V149.491ZM63.6028 151.709H59.8202V162.061H63.7126C67.2138 162.061 68.5181 159.789 68.4495 156.885C68.3808 153.981 67.2618 151.709 63.6165 151.709H63.6028Z" fill="#231F20"/>
    <path d="M83.0597 161.073H76.0712L74.7394 164.279H71.4785L78.0826 149.491H81.0895L87.6936 164.279H84.419L83.0597 161.073ZM77.0254 158.855H82.1467L80.3 154.441L79.6135 152.574L78.927 154.441L77.0254 158.855Z" fill="#231F20"/>
    <path d="M100.036 154.469L99.6932 153.878V164.279H96.7344V149.491H100.167L107.361 159.301L107.808 159.988V149.491H110.76V164.279H107.327L100.036 154.469Z" fill="#231F20"/>
    <path d="M120.516 149.368C127.566 149.368 128.307 154.372 128.307 156.885C128.307 159.226 127.71 164.436 120.619 164.436C113.527 164.436 112.875 159.26 112.875 156.885C112.875 154.51 113.445 149.368 120.516 149.368ZM115.834 156.885C115.834 159.768 117.069 162.185 120.639 162.185C124.209 162.185 125.369 159.789 125.369 156.885C125.369 153.981 124.182 151.585 120.564 151.585C117.069 151.599 115.834 153.899 115.834 156.885Z" fill="#231F20"/>
    <path d="M131.876 159.398C131.876 161.588 134.018 162.144 135.892 162.144C137.952 162.192 139.469 161.602 139.469 160.023C139.469 158.65 138.508 158.128 136.778 157.963C136.14 157.888 135.549 157.84 134.76 157.737C132.123 157.421 129.412 156.727 129.487 153.425C129.488 152.88 129.612 152.342 129.85 151.851C130.087 151.36 130.433 150.929 130.86 150.59C131.869 149.78 133.098 149.313 135.391 149.361C138.446 149.361 141.432 150.322 141.824 154.043L138.844 154.167C138.796 152.341 137.588 151.675 135.638 151.579C134.334 151.531 132.535 151.75 132.46 153.302C132.412 154.675 133.572 155.032 135.144 155.251L137.265 155.519C140.011 155.766 142.49 156.775 142.469 159.837C142.469 163.27 139.16 164.416 135.982 164.396C132.68 164.396 129.281 163.579 128.787 159.542L131.876 159.398Z" fill="#231F20"/>
    <path d="M142.373 149.491H156.391V151.709H150.899V164.279H147.941V151.709H142.373V149.491Z" fill="#231F20"/>
    <path d="M158.244 149.491H167.375C170.807 149.491 171.494 152.237 171.494 153.83C171.502 154.917 171.147 155.975 170.484 156.837C169.87 157.531 169.017 157.969 168.095 158.066L168.83 158.979L172.949 164.279H169.352L164.546 158.189H161.196V164.279H158.244V149.491ZM166.743 151.709H161.196V155.945H166.688C167.828 155.945 168.514 154.791 168.514 153.83C168.542 152.766 167.951 151.709 166.743 151.709Z" fill="#231F20"/>
    <path d="M185.425 161.073H178.45L177.118 164.279H173.844L180.42 149.491H183.427L190.031 164.279H186.75L185.425 161.073ZM179.391 158.855H184.539L182.693 154.441L182.006 152.574L181.32 154.441L179.391 158.855Z" fill="#231F20"/>
    </svg>
    