<?xml version="1.0" encoding="UTF-8"?>
<svg id="Layer_1" data-name="Layer 1" xmlns="http://www.w3.org/2000/svg" viewBox="0 0 151.03 27.64">
  <defs>
    <style>
      .cls-1 {
        fill: #231f20;
        stroke-width: 0px;
      }
    </style>
  </defs>
  <path class="cls-1" d="m37.95,25.97l-.69,1.63h-.54l2.75-6.6h.48l2.75,6.6h-.57l-.69-1.63h-3.49Zm3.29-.47l-1.53-3.78h-.03l-1.53,3.78h3.1Z"/>
  <path class="cls-1" d="m46.74,21h2.69c.48,0,.93.19,1.27.53.34.34.53.79.53,1.27s-.19.93-.53,1.27c-.34.34-.79.53-1.27.53h-2.18v3h-.51v-6.6Zm4,1.83c-.01-.36-.16-.7-.42-.94-.26-.25-.6-.39-.96-.39h-2.11v2.68h2.11c.36,0,.7-.14.96-.39.26-.25.4-.59.41-.95Z"/>
  <path class="cls-1" d="m55.61,25.97l-.69,1.63h-.54l2.75-6.6h.48l2.75,6.6h-.57l-.69-1.63h-3.49Zm3.29-.47l-1.53-3.78-1.53,3.78h3.06Z"/>
  <path class="cls-1" d="m69.03,27.64c-.3,0-.75-.17-.75-1.25,0-1.79-.93-1.91-1.24-1.91h-2.13v3.13h-.52v-6.6h2.68c.23-.01.46.02.67.09.22.08.41.19.58.34.17.15.31.34.41.54.1.21.16.43.17.65,0,.35-.11.7-.33.98-.21.28-.51.49-.86.58v.05s1.06.16,1.06,1.89c0,1.18.25,1.16.49,1.28v.19c-.08.02-.16.03-.24.03Zm-.64-4.9c0-.17-.03-.34-.1-.49-.06-.16-.16-.3-.28-.42-.12-.12-.26-.21-.42-.28-.16-.06-.33-.09-.5-.09h-2.19v2.53h2.19c.17,0,.34-.03.49-.09.16-.06.3-.16.42-.27.12-.12.21-.26.28-.41.06-.15.1-.32.1-.49h0Z"/>
  <path class="cls-1" d="m75.7,27.6h-.49v-6.14h-2.23v-.47h4.96v.47h-2.23v6.14Z"/>
  <path class="cls-1" d="m88.37,21.59h-.05l-2.64,6.01h-.49l-2.62-6.01h-.05v6.01h-.46v-6.6h.82l2.58,5.93,2.6-5.93h.82v6.6h-.51v-6.01Z"/>
  <path class="cls-1" d="m94.32,25.97l-.69,1.63h-.54l2.75-6.6h.48l2.75,6.6h-.57l-.69-1.63h-3.49Zm3.29-.47l-1.53-3.78-1.53,3.78h3.06Z"/>
  <path class="cls-1" d="m103.59,22v5.6h-.47v-6.6h.45l3.67,5.61v-5.61h.46v6.6h-.46l-3.65-5.6Z"/>
  <path class="cls-1" d="m114.32,21v.46h-.76v5.66h.76v.47h-2.06v-.47h.76v-5.66h-.76v-.47h2.06Z"/>
  <path class="cls-1" d="m11.58,11.72h-6.97l-1.32,3.21H0L6.6.13h3.01l6.6,14.79h-3.27l-1.36-3.21Zm-6.03-2.22h5.12l-1.85-4.41-.69-1.87-.69,1.87-1.9,4.41Z"/>
  <path class="cls-1" d="m17.85.13h6.99c6.87,0,7.55,4.9,7.55,7.39.05,2.34-.59,7.39-7.69,7.39h-6.85V.13Zm6.76,2.22h-3.78v10.35h3.89c3.5,0,4.81-2.27,4.74-5.18-.07-2.9-1.19-5.18-4.83-5.18h-.01Z"/>
  <path class="cls-1" d="m44.06,11.72h-6.99l-1.33,3.21h-3.26L39.08.13h3.01l6.6,14.79h-3.27l-1.36-3.21Zm-6.03-2.22h5.12l-1.85-4.41-.69-1.87-.69,1.87-1.9,4.41Z"/>
  <path class="cls-1" d="m61.04,5.11l-.34-.59v10.4h-2.96V.13h3.43l7.19,9.81.45.69V.13h2.95v14.79h-3.43l-7.29-9.81Z"/>
  <path class="cls-1" d="m81.52.01c7.05,0,7.79,5,7.79,7.52,0,2.34-.6,7.55-7.69,7.55s-7.74-5.18-7.74-7.55S74.44.01,81.52.01Zm-4.68,7.52c0,2.88,1.24,5.3,4.81,5.3s4.73-2.4,4.73-5.3-1.19-5.3-4.81-5.3c-3.5.01-4.73,2.31-4.73,5.3Z"/>
  <path class="cls-1" d="m92.88,10.04c0,2.19,2.14,2.75,4.02,2.75,2.06.05,3.58-.54,3.58-2.12,0-1.37-.96-1.89-2.69-2.06-.64-.07-1.23-.12-2.02-.23-2.64-.32-5.35-1.01-5.27-4.31,0-.54.12-1.08.36-1.57.24-.49.58-.92,1.01-1.26,1.01-.81,2.24-1.28,4.53-1.23,3.05,0,6.04.96,6.43,4.68l-2.98.12c-.05-1.83-1.26-2.49-3.21-2.59-1.3-.05-3.1.17-3.18,1.72-.05,1.37,1.11,1.73,2.68,1.95l2.12.27c2.75.25,5.23,1.26,5.2,4.32,0,3.43-3.31,4.58-6.49,4.56-3.3,0-6.7-.82-7.19-4.85l3.09-.14Z"/>
  <path class="cls-1" d="m103.37.13h14.02v2.22h-5.49v12.57h-2.96V2.35h-5.57V.13Z"/>
  <path class="cls-1" d="m119.24.13h9.13c3.43,0,4.12,2.75,4.12,4.34,0,1.09-.35,2.15-1.01,3.01-.61.69-1.47,1.13-2.39,1.23l.74.91,4.12,5.3h-3.6l-4.81-6.09h-3.35v6.09h-2.95V.13Zm8.5,2.22h-5.55v4.24h5.49c1.14,0,1.83-1.15,1.83-2.12.03-1.06-.56-2.12-1.77-2.12Z"/>
  <path class="cls-1" d="m146.43,11.72h-6.98l-1.33,3.21h-3.27L141.42.13h3.01l6.6,14.79h-3.28l-1.32-3.21Zm-6.03-2.22h5.15l-1.85-4.41-.69-1.87-.69,1.87-1.93,4.41Z"/>
</svg>