<?xml version="1.0" encoding="UTF-8"?>
<svg id="Layer_1" data-name="Layer 1" width="170" height="109" xmlns="http://www.w3.org/2000/svg" viewBox="0 0 169.11 109.31">
  <defs>
    <style>
      .cls-1 {
        stroke-width: 0px;
      }

      .cls-1, .cls-2 {
        fill: #7a7d8d;
      }

      .cls-2 {
        stroke: #fff;
        stroke-width: .8px;
      }
    </style>
  </defs>
  <path class="cls-2" d="m164.05,64.42h0V9.91h0c0-1.43-.63-2.8-1.73-3.8-1.1-1-2.58-1.56-4.12-1.56H10.91c-1.54,0-3.02.56-4.12,1.56-1.1,1-1.73,2.36-1.73,3.8h0v54.51h0c0,1.43.63,2.8,1.73,3.8,1.1,1,2.58,1.56,4.12,1.56h147.29c1.54,0,3.02-.56,4.12-1.56,1.1-1,1.73-2.36,1.73-3.8ZM3.47,3.2C5.44,1.41,8.11.4,10.91.4h147.29c2.8,0,5.47,1.01,7.44,2.8,1.97,1.79,3.07,4.2,3.07,6.71v54.5c0,2.51-1.1,4.92-3.07,6.71-1.97,1.79-4.64,2.8-7.44,2.8H10.91c-2.8,0-5.47-1.01-7.44-2.8-1.97-1.79-3.06-4.2-3.07-6.71V9.91c0-2.51,1.1-4.92,3.07-6.71Z"/>
  <path class="cls-2" d="m144.56,59.86h.4v-5.76H24.15v5.76h120.41Zm-122.74-9.91h125.47c.63,0,1.23.23,1.66.62.43.39.67.92.67,1.46v9.91c0,.54-.24,1.06-.67,1.46-.43.39-1.03.62-1.66.62H21.82c-.63,0-1.23-.23-1.66-.62-.43-.39-.67-.92-.67-1.46v-9.91c0-.54.23-1.06.67-1.46.43-.39,1.03-.62,1.66-.62Z"/>
  <path class="cls-2" d="m49.1,20.22h.4v-5.76H15.97v5.76h33.13Zm5.06-7.83v9.91c0,.54-.23,1.06-.67,1.46-.43.39-1.03.62-1.66.62H13.64c-.63,0-1.23-.23-1.66-.62-.43-.39-.67-.92-.67-1.46v-9.91c0-.54.23-1.06.67-1.46.43-.39,1.03-.62,1.66-.62h38.19c.63,0,1.23.23,1.66.62.43.39.67.92.67,1.46Z"/>
  <path class="cls-1" d="m119.23,106.11c.33.46.45,1.01.33,1.53-.12.53-.46,1-.98,1.31-.51.31-1.15.43-1.76.32-.61-.11-1.14-.43-1.48-.89-1.13-1.53-2.4-4.08-2.71-6.85-.31-2.75.33-5.7,3-8.13h0c2.08-1.89,1.97-4.39,1.4-6.32-.58-1.94-1.65-3.43-1.68-3.47h0c-.17-.23-.28-.48-.34-.75-.06-.26-.06-.53,0-.8.06-.26.17-.52.34-.74.17-.23.38-.43.64-.58.26-.15.54-.26.85-.32.31-.05.62-.05.93,0,.31.06.59.17.85.32.25.16.47.36.64.58h0c1.13,1.54,2.4,4.09,2.71,6.85.31,2.75-.33,5.7-3,8.13h0c-2.08,1.89-1.97,4.39-1.4,6.32.58,1.94,1.65,3.43,1.68,3.47"/>
  <path class="cls-1" d="m103.17,106.11c.33.46.45,1.01.33,1.53-.12.53-.46,1-.98,1.31-.51.31-1.15.43-1.76.32-.61-.11-1.14-.43-1.48-.89-1.13-1.53-2.4-4.08-2.71-6.85-.31-2.75.33-5.7,3-8.13h0c2.08-1.89,1.97-4.39,1.4-6.32-.58-1.94-1.65-3.43-1.68-3.47h0c-.17-.23-.28-.48-.34-.75-.06-.26-.06-.53,0-.8.06-.26.17-.52.34-.74.17-.23.38-.43.64-.58.26-.15.54-.26.85-.32.31-.05.62-.05.93,0,.31.06.59.17.85.32.25.16.47.36.64.58h0c1.13,1.54,2.4,4.09,2.71,6.85.31,2.75-.33,5.7-3,8.13h0c-2.08,1.89-1.97,4.39-1.4,6.32.58,1.94,1.65,3.43,1.68,3.47"/>
  <path class="cls-1" d="m87.1,106.11c.33.46.45,1.01.33,1.53-.12.53-.46,1-.98,1.31-.51.31-1.15.43-1.76.32-.61-.11-1.14-.43-1.48-.89-1.13-1.53-2.4-4.08-2.71-6.85-.31-2.75.33-5.7,3-8.13h0c2.08-1.89,1.97-4.39,1.4-6.32-.58-1.94-1.65-3.43-1.68-3.47h0c-.17-.23-.28-.48-.34-.75-.06-.26-.06-.53,0-.8.06-.26.17-.52.34-.74.17-.23.38-.43.64-.58.26-.15.54-.26.85-.32.31-.05.62-.05.93,0,.31.06.59.17.85.32.25.16.47.36.64.58h0c1.13,1.54,2.4,4.09,2.71,6.85.31,2.75-.33,5.7-3,8.13h0c-2.08,1.89-1.97,4.39-1.4,6.32.58,1.94,1.65,3.43,1.68,3.47"/>
  <path class="cls-1" d="m71.04,106.11c.33.46.45,1.01.33,1.53-.12.53-.46,1-.98,1.31-.51.31-1.15.43-1.76.32-.61-.11-1.14-.43-1.48-.89-1.13-1.53-2.4-4.08-2.71-6.85-.31-2.75.33-5.7,3-8.13h0c2.08-1.89,1.97-4.39,1.4-6.32-.58-1.94-1.65-3.43-1.68-3.47h0c-.17-.23-.28-.48-.34-.75-.06-.26-.06-.53,0-.8.06-.26.17-.52.34-.74.17-.23.38-.43.64-.58.26-.15.54-.26.85-.32.31-.05.62-.05.93,0,.31.06.59.17.85.32.25.16.47.36.64.58h0c1.13,1.54,2.4,4.09,2.71,6.85.31,2.75-.33,5.7-3,8.13h0c-2.08,1.89-1.97,4.39-1.4,6.32.58,1.94,1.65,3.43,1.68,3.47"/>
  <path class="cls-1" d="m54.98,106.11c.33.46.45,1.01.33,1.53-.12.53-.46,1-.98,1.31-.51.31-1.15.43-1.76.32-.61-.11-1.14-.43-1.48-.89-1.13-1.53-2.4-4.08-2.71-6.85-.31-2.75.33-5.7,3-8.13h0c2.08-1.89,1.97-4.39,1.4-6.32-.58-1.94-1.65-3.43-1.68-3.47h0c-.17-.23-.28-.48-.34-.75-.06-.26-.06-.53,0-.8.06-.26.17-.52.34-.74.17-.23.38-.43.64-.58.26-.15.54-.26.85-.32.31-.05.62-.05.93,0,.31.06.59.17.85.32.25.16.47.36.64.58h0c1.13,1.54,2.4,4.09,2.71,6.85.31,2.75-.33,5.7-3,8.13h0c-2.08,1.89-1.97,4.39-1.4,6.32.58,1.94,1.65,3.43,1.68,3.47"/>
  <path class="cls-2" d="m152.74,20.22h.4v-5.76h-6.26v5.76h5.85Zm-8.18-9.91h10.91c.63,0,1.23.23,1.66.62.43.39.67.92.67,1.46v9.91c0,.54-.24,1.06-.67,1.46-.43.39-1.03.62-1.66.62h-10.91c-.63,0-1.22-.23-1.66-.62-.43-.39-.67-.92-.67-1.46v-9.91c0-.54.23-1.06.67-1.46.44-.39,1.03-.62,1.66-.62Z"/>
  <path class="cls-2" d="m128.2,14.47h-.4v5.76h6.26v-5.76h-5.85Zm8.18,9.91h-10.91c-.63,0-1.23-.23-1.66-.62-.43-.39-.67-.92-.67-1.46v-9.91c0-.54.24-1.06.67-1.46.43-.39,1.03-.62,1.66-.62h10.91c.63,0,1.23.23,1.66.62.43.39.67.92.67,1.46v9.91c0,.54-.24,1.06-.67,1.46-.43.39-1.03.62-1.66.62Z"/>
</svg>