<svg width="17" height="18" viewBox="0 0 17 18" fill="none" xmlns="http://www.w3.org/2000/svg">
    <path fill-rule="evenodd" clip-rule="evenodd" d="M8.5 0C9.49271 0 10.3749 0.443622 11.1052 1.11638C12.4346 2.34129 13.5956 4.4345 14.5218 6.45965C15.4714 8.53304 16.2578 10.7288 16.7835 12.3163C17.43 14.2683 16.5815 16.3391 14.8654 17.365C13.975 17.9002 12.9244 18.106 11.8973 17.9465C10.8702 17.787 9.93201 17.2723 9.24669 16.4924C9.00844 16.2202 8.75638 15.9325 8.5 15.637C8.24363 15.9325 7.9907 16.2202 7.75332 16.4924C7.06807 17.2726 6.12974 17.7876 5.10246 17.9473C4.07518 18.107 3.02434 17.9012 2.13375 17.3659C0.418524 16.3382 -0.430023 14.2683 0.21653 12.3163C0.742232 10.7288 1.52863 8.53304 2.47817 6.45879C3.40441 4.4345 4.56544 2.34129 5.8948 1.11638C6.62509 0.444483 7.50816 0 8.5 0ZM10.2031 13.6532C10.6494 13.1226 11.0275 12.6609 11.2623 12.3482C12.1566 11.1586 12.394 9.63306 11.9399 8.3444C11.4626 6.98855 10.2334 5.97382 8.5 5.97382C6.76666 5.97382 5.53743 6.98855 5.06007 8.3444C4.60601 9.63306 4.84426 11.1586 5.7377 12.3482C5.97249 12.6609 6.35058 13.1235 6.79687 13.6532C6.46194 14.0391 6.12442 14.425 5.80416 14.7903C5.51873 15.1144 5.12813 15.328 4.70076 15.3937C4.27339 15.4593 3.83649 15.3729 3.46656 15.1495C2.73886 14.7136 2.42724 13.8746 2.67585 13.1269C3.18688 11.5833 3.9396 9.48662 4.8339 7.53296C5.74978 5.5302 6.73472 3.85994 7.65232 3.01491C8.22982 2.48256 8.77019 2.48256 9.34769 3.01491C10.2653 3.85994 11.2502 5.5302 12.1661 7.53296C13.0604 9.48662 13.8131 11.5833 14.3242 13.1269C14.5728 13.8755 14.2611 14.7136 13.5334 15.1495C13.1635 15.3729 12.7266 15.4593 12.2992 15.3937C11.8719 15.328 11.4813 15.1144 11.1958 14.7903C10.8756 14.425 10.5381 14.0391 10.2031 13.6532ZM8.5 11.6573C8.26347 11.3759 8.03322 11.0893 7.80943 10.7977C7.40889 10.2636 7.34933 9.6365 7.50298 9.20149C7.63247 8.8354 7.91301 8.55803 8.5 8.55803C9.087 8.55803 9.36754 8.8354 9.49703 9.20149C9.65068 9.6365 9.59198 10.2645 9.19058 10.7977C9.03261 11.0079 8.79264 11.3059 8.5 11.6573Z" fill="#414042"/>
    </svg>
    