<svg width="20" height="20" viewBox="0 0 20 20" fill="none" xmlns="http://www.w3.org/2000/svg">
    <path d="M2 16V6.5C2 5.30653 2.47411 4.16193 3.31802 3.31802C4.16193 2.47411 5.30653 2 6.5 2H13.5C14.0909 2 14.6761 2.1164 15.2221 2.34254C15.768 2.56869 16.2641 2.90016 16.682 3.31802C17.0998 3.73588 17.4313 4.23196 17.6575 4.77792C17.8836 5.32389 18 5.90905 18 6.5V13.5C18 14.0909 17.8836 14.6761 17.6575 15.2221C17.4313 15.768 17.0998 16.2641 16.682 16.682C16.2641 17.0998 15.768 17.4313 15.2221 17.6575C14.6761 17.8836 14.0909 18 13.5 18H4C3.46957 18 2.96086 17.7893 2.58579 17.4142C2.21071 17.0391 2 16.5304 2 16Z" stroke="#414042" stroke-width="2.4" stroke-linecap="round" stroke-linejoin="round"/>
    <path d="M6 10H9.5C10.0304 10 10.5391 10.2107 10.9142 10.5858C11.2893 10.9609 11.5 11.4696 11.5 12C11.5 12.5304 11.2893 13.0391 10.9142 13.4142C10.5391 13.7893 10.0304 14 9.5 14H6V7C6 6.73478 6.10536 6.48043 6.29289 6.29289C6.48043 6.10536 6.73478 6 7 6H8.5C9.03043 6 9.53914 6.21071 9.91421 6.58579C10.2893 6.96086 10.5 7.46957 10.5 8C10.5 8.53043 10.2893 9.03914 9.91421 9.41421C9.53914 9.78929 9.03043 10 8.5 10H7M14 14H14.01" stroke="#414042" stroke-width="2.4" stroke-linecap="round" stroke-linejoin="round"/>
    </svg>
    