<svg width="30" height="30" viewBox="0 0 30 30" fill="none" xmlns="http://www.w3.org/2000/svg">
    <rect width="30" height="30" rx="4" fill="#D7D8DD"/>
    <path d="M24 15V22C24 22.5304 23.7893 23.0391 23.4142 23.4142C23.0391 23.7893 22.5304 24 22 24H8C7.46957 24 6.96086 23.7893 6.58579 23.4142C6.21071 23.0391 6 22.5304 6 22V15H24ZM19 6C19.2652 6 19.5196 6.10536 19.7071 6.29289C19.8946 6.48043 20 6.73478 20 7V8H22C22.5304 8 23.0391 8.21071 23.4142 8.58579C23.7893 8.96086 24 9.46957 24 10V13H6V10C6 9.46957 6.21071 8.96086 6.58579 8.58579C6.96086 8.21071 7.46957 8 8 8H10V7C10 6.73478 10.1054 6.48043 10.2929 6.29289C10.4804 6.10536 10.7348 6 11 6C11.2652 6 11.5196 6.10536 11.7071 6.29289C11.8946 6.48043 12 6.73478 12 7V8H18V7C18 6.73478 18.1054 6.48043 18.2929 6.29289C18.4804 6.10536 18.7348 6 19 6Z" fill="#5E6278"/>
    </svg>
    