<svg xmlns="http://www.w3.org/2000/svg" width="75" height="70" viewBox="0 0 75 70" fill="none">
    <path d="M35.0007 16.897H27.7592C27.4391 16.897 27.1321 17.0241 26.9057 17.2505C26.6794 17.4768 26.5522 17.7838 26.5522 18.1039V25.3454C26.5522 25.6655 26.6794 25.9725 26.9057 26.1988C27.1321 26.4252 27.4391 26.5523 27.7592 26.5523H35.0007C35.3208 26.5523 35.6278 26.4252 35.8541 26.1988C36.0805 25.9725 36.2076 25.6655 36.2076 25.3454V18.1039C36.2076 17.7838 36.0805 17.4768 35.8541 17.2505C35.6278 17.0241 35.3208 16.897 35.0007 16.897ZM33.7938 24.1385H28.9661V19.3108H33.7938V24.1385Z" fill="#414042"/>
    <path d="M24.1384 16.897H16.8969C16.5768 16.897 16.2698 17.0241 16.0434 17.2505C15.8171 17.4768 15.6899 17.7838 15.6899 18.1039V25.3454C15.6899 25.6655 15.8171 25.9725 16.0434 26.1988C16.2698 26.4252 16.5768 26.5523 16.8969 26.5523H24.1384C24.4585 26.5523 24.7655 26.4252 24.9918 26.1988C25.2182 25.9725 25.3453 25.6655 25.3453 25.3454V18.1039C25.3453 17.7838 25.2182 17.4768 24.9918 17.2505C24.7655 17.0241 24.4585 16.897 24.1384 16.897ZM22.9315 24.1385H18.1038V19.3108H22.9315V24.1385Z" fill="#414042"/>
    <path d="M13.2761 16.897H6.03456C5.71446 16.897 5.40748 17.0241 5.18114 17.2505C4.95479 17.4768 4.82764 17.7838 4.82764 18.1039V25.3454C4.82764 25.6655 4.95479 25.9725 5.18114 26.1988C5.40748 26.4252 5.71446 26.5523 6.03456 26.5523H13.2761C13.5962 26.5523 13.9032 26.4252 14.1295 26.1988C14.3558 25.9725 14.483 25.6655 14.483 25.3454V18.1039C14.483 17.7838 14.3558 17.4768 14.1295 17.2505C13.9032 17.0241 13.5962 16.897 13.2761 16.897ZM12.0692 24.1385H7.24148V19.3108H12.0692V24.1385Z" fill="#414042"/>
    <path d="M49.4838 26.5523H56.7253C57.0454 26.5523 57.3524 26.4252 57.5787 26.1988C57.8051 25.9725 57.9322 25.6655 57.9322 25.3454V18.1039C57.9322 17.7838 57.8051 17.4768 57.5787 17.2505C57.3524 17.0241 57.0454 16.897 56.7253 16.897H49.4838C49.1637 16.897 48.8567 17.0241 48.6304 17.2505C48.404 17.4768 48.2769 17.7838 48.2769 18.1039V25.3454C48.2769 25.6655 48.404 25.9725 48.6304 26.1988C48.8567 26.4252 49.1637 26.5523 49.4838 26.5523ZM50.6907 19.3108H55.5184V24.1385H50.6907V19.3108Z" fill="#414042"/>
    <path d="M45.863 16.897H38.6215C38.3014 16.897 37.9944 17.0241 37.768 17.2505C37.5417 17.4768 37.4146 17.7838 37.4146 18.1039V25.3454C37.4146 25.6655 37.5417 25.9725 37.768 26.1988C37.9944 26.4252 38.3014 26.5523 38.6215 26.5523H45.863C46.1831 26.5523 46.4901 26.4252 46.7164 26.1988C46.9428 25.9725 47.0699 25.6655 47.0699 25.3454V18.1039C47.0699 17.7838 46.9428 17.4768 46.7164 17.2505C46.4901 17.0241 46.1831 16.897 45.863 16.897ZM44.6561 24.1385H39.8284V19.3108H44.6561V24.1385Z" fill="#414042"/>
    <path d="M35.0007 27.7593H27.7592C27.4391 27.7593 27.1321 27.8864 26.9057 28.1128C26.6794 28.3391 26.5522 28.6461 26.5522 28.9662V36.2077C26.5522 36.5278 26.6794 36.8348 26.9057 37.0611C27.1321 37.2875 27.4391 37.4146 27.7592 37.4146H35.0007C35.3208 37.4146 35.6278 37.2875 35.8541 37.0611C36.0805 36.8348 36.2076 36.5278 36.2076 36.2077V28.9662C36.2076 28.6461 36.0805 28.3391 35.8541 28.1128C35.6278 27.8864 35.3208 27.7593 35.0007 27.7593ZM33.7938 35.0008H28.9661V30.1731H33.7938V35.0008Z" fill="#414042"/>
    <path d="M24.1384 27.7593H16.8969C16.5768 27.7593 16.2698 27.8864 16.0434 28.1128C15.8171 28.3391 15.6899 28.6461 15.6899 28.9662V36.2077C15.6899 36.5278 15.8171 36.8348 16.0434 37.0611C16.2698 37.2875 16.5768 37.4146 16.8969 37.4146H24.1384C24.4585 37.4146 24.7655 37.2875 24.9918 37.0611C25.2182 36.8348 25.3453 36.5278 25.3453 36.2077V28.9662C25.3453 28.6461 25.2182 28.3391 24.9918 28.1128C24.7655 27.8864 24.4585 27.7593 24.1384 27.7593ZM22.9315 35.0008H18.1038V30.1731H22.9315V35.0008Z" fill="#414042"/>
    <path d="M13.2761 27.7593H6.03456C5.71446 27.7593 5.40748 27.8864 5.18114 28.1128C4.95479 28.3391 4.82764 28.6461 4.82764 28.9662V36.2077C4.82764 36.5278 4.95479 36.8348 5.18114 37.0611C5.40748 37.2875 5.71446 37.4146 6.03456 37.4146H13.2761C13.5962 37.4146 13.9032 37.2875 14.1295 37.0611C14.3558 36.8348 14.483 36.5278 14.483 36.2077V28.9662C14.483 28.6461 14.3558 28.3391 14.1295 28.1128C13.9032 27.8864 13.5962 27.7593 13.2761 27.7593ZM12.0692 35.0008H7.24148V30.1731H12.0692V35.0008Z" fill="#414042"/>
    <path d="M49.4838 37.4146H56.7253C57.0454 37.4146 57.3524 37.2875 57.5787 37.0611C57.8051 36.8348 57.9322 36.5278 57.9322 36.2077V28.9662C57.9322 28.6461 57.8051 28.3391 57.5787 28.1128C57.3524 27.8864 57.0454 27.7593 56.7253 27.7593H49.4838C49.1637 27.7593 48.8567 27.8864 48.6304 28.1128C48.404 28.3391 48.2769 28.6461 48.2769 28.9662V36.2077C48.2769 36.5278 48.404 36.8348 48.6304 37.0611C48.8567 37.2875 49.1637 37.4146 49.4838 37.4146ZM50.6907 30.1731H55.5184V35.0008H50.6907V30.1731Z" fill="#414042"/>
    <path d="M45.863 27.7593H38.6215C38.3014 27.7593 37.9944 27.8864 37.768 28.1128C37.5417 28.3391 37.4146 28.6461 37.4146 28.9662V36.2077C37.4146 36.5278 37.5417 36.8348 37.768 37.0611C37.9944 37.2875 38.3014 37.4146 38.6215 37.4146H45.863C46.1831 37.4146 46.4901 37.2875 46.7164 37.0611C46.9428 36.8348 47.0699 36.5278 47.0699 36.2077V28.9662C47.0699 28.6461 46.9428 28.3391 46.7164 28.1128C46.4901 27.8864 46.1831 27.7593 45.863 27.7593ZM44.6561 35.0008H39.8284V30.1731H44.6561V35.0008Z" fill="#414042"/>
    <path d="M35.0007 38.6216H27.7592C27.4391 38.6216 27.1321 38.7487 26.9057 38.9751C26.6794 39.2014 26.5522 39.5084 26.5522 39.8285V47.07C26.5522 47.3901 26.6794 47.6971 26.9057 47.9235C27.1321 48.1498 27.4391 48.277 27.7592 48.277H35.0007C35.3208 48.277 35.6278 48.1498 35.8541 47.9235C36.0805 47.6971 36.2076 47.3901 36.2076 47.07V39.8285C36.2076 39.5084 36.0805 39.2014 35.8541 38.9751C35.6278 38.7487 35.3208 38.6216 35.0007 38.6216ZM33.7938 45.8631H28.9661V41.0354H33.7938V45.8631Z" fill="#414042"/>
    <path d="M24.1384 38.6216H16.8969C16.5768 38.6216 16.2698 38.7487 16.0434 38.9751C15.8171 39.2014 15.6899 39.5084 15.6899 39.8285V47.07C15.6899 47.3901 15.8171 47.6971 16.0434 47.9235C16.2698 48.1498 16.5768 48.277 16.8969 48.277H24.1384C24.4585 48.277 24.7655 48.1498 24.9918 47.9235C25.2182 47.6971 25.3453 47.3901 25.3453 47.07V39.8285C25.3453 39.5084 25.2182 39.2014 24.9918 38.9751C24.7655 38.7487 24.4585 38.6216 24.1384 38.6216ZM22.9315 45.8631H18.1038V41.0354H22.9315V45.8631Z" fill="#414042"/>
    <path d="M13.2761 38.6216H6.03456C5.71446 38.6216 5.40748 38.7487 5.18114 38.9751C4.95479 39.2014 4.82764 39.5084 4.82764 39.8285V47.07C4.82764 47.3901 4.95479 47.6971 5.18114 47.9235C5.40748 48.1498 5.71446 48.277 6.03456 48.277H13.2761C13.5962 48.277 13.9032 48.1498 14.1295 47.9235C14.3558 47.6971 14.483 47.3901 14.483 47.07V39.8285C14.483 39.5084 14.3558 39.2014 14.1295 38.9751C13.9032 38.7487 13.5962 38.6216 13.2761 38.6216ZM12.0692 45.8631H7.24148V41.0354H12.0692V45.8631Z" fill="#414042"/>
    <path d="M62.7599 39.0801V7.84499C62.7587 6.72503 62.3132 5.6513 61.5213 4.85938C60.7294 4.06745 59.6556 3.622 58.5357 3.62076H51.8976V1.20692C51.8976 0.886826 51.7705 0.579841 51.5441 0.353499C51.3178 0.127157 51.0108 0 50.6907 0H45.863C45.5429 0 45.2359 0.127157 45.0096 0.353499C44.7832 0.579841 44.6561 0.886826 44.6561 1.20692V3.62076H35.0007V1.20692C35.0007 0.886826 34.8736 0.579841 34.6472 0.353499C34.4209 0.127157 34.1139 0 33.7938 0H28.9661C28.646 0 28.339 0.127157 28.1127 0.353499C27.8863 0.579841 27.7592 0.886826 27.7592 1.20692V3.62076H18.1038V1.20692C18.1038 0.886826 17.9767 0.579841 17.7503 0.353499C17.524 0.127157 17.217 0 16.8969 0H12.0692C11.7491 0 11.4421 0.127157 11.2158 0.353499C10.9894 0.579841 10.8623 0.886826 10.8623 1.20692V3.62076H4.22422C3.10427 3.622 2.03054 4.06745 1.23861 4.85938C0.446686 5.6513 0.00123789 6.72503 0 7.84499V50.0872C0.00123789 51.2072 0.446686 52.2809 1.23861 53.0728C2.03054 53.8648 3.10427 54.3102 4.22422 54.3115H43.2983C43.2986 57.2526 44.1255 60.1344 45.6847 62.6281C47.244 65.1219 49.4727 67.1272 52.1168 68.4153C54.7608 69.7033 57.7137 70.2223 60.6385 69.913C63.5633 69.6036 66.3422 68.4784 68.6583 66.6658C70.9744 64.8531 72.7344 62.426 73.7375 59.6612C74.7406 56.8964 74.9464 53.9054 74.3314 51.0293C73.7164 48.1532 72.3055 45.5079 70.2594 43.3951C68.2134 41.2823 65.6148 39.7871 62.7599 39.0801ZM47.0699 2.41384H49.4838V7.24153H47.0699V2.41384ZM30.173 2.41384H32.5869V7.24153H30.173V2.41384ZM13.2761 2.41384H15.69V7.24153H13.2761V2.41384ZM2.41384 7.84499C2.41424 7.36497 2.60511 6.90472 2.94453 6.5653C3.28396 6.22587 3.7442 6.03501 4.22422 6.03461H10.8623V8.44845C10.8623 8.76854 10.9894 9.07553 11.2158 9.30187C11.4421 9.52821 11.7491 9.65537 12.0692 9.65537H16.8969C17.217 9.65537 17.524 9.52821 17.7503 9.30187C17.9767 9.07553 18.1038 8.76854 18.1038 8.44845V6.03461H27.7592V8.44845C27.7592 8.76854 27.8863 9.07553 28.1127 9.30187C28.339 9.52821 28.646 9.65537 28.9661 9.65537H33.7938C34.1139 9.65537 34.4209 9.52821 34.6472 9.30187C34.8736 9.07553 35.0007 8.76854 35.0007 8.44845V6.03461H44.6561V8.44845C44.6561 8.76854 44.7832 9.07553 45.0096 9.30187C45.2359 9.52821 45.5429 9.65537 45.863 9.65537H50.6907C51.0108 9.65537 51.3178 9.52821 51.5441 9.30187C51.7705 9.07553 51.8976 8.76854 51.8976 8.44845V6.03461H58.5357C59.0157 6.03501 59.4759 6.22587 59.8154 6.5653C60.1548 6.90472 60.3457 7.36497 60.3461 7.84499V12.0692H2.41384V7.84499ZM4.22422 51.8976C3.7442 51.8972 3.28396 51.7063 2.94453 51.3669C2.60511 51.0275 2.41424 50.5672 2.41384 50.0872V14.4831H60.3461V38.6803C59.898 38.6426 59.4454 38.6215 58.9883 38.6215C55.2465 38.6261 51.6292 39.9658 48.787 42.3995C45.9449 44.8331 44.0644 48.2011 43.4839 51.8976H4.22422ZM58.9883 67.5876C55.4684 67.5836 52.0939 66.1836 49.605 63.6947C47.1161 61.2058 45.7161 57.8313 45.7121 54.3115C45.7121 53.9494 45.7267 53.5913 45.7559 53.2373C45.7571 53.2293 45.7576 53.2212 45.7574 53.2132C45.9707 50.643 46.928 48.1907 48.5123 46.1557C50.0966 44.1208 52.2393 42.5913 54.6786 41.7542C57.1179 40.9171 59.7482 40.8085 62.2482 41.4418C64.7482 42.0752 67.0096 43.4229 68.7562 45.3204C70.5027 47.2179 71.6588 49.583 72.0832 52.1268C72.5076 54.6706 72.1818 57.283 71.1458 59.6447C70.1098 62.0064 68.4084 64.0152 66.2494 65.4258C64.0903 66.8363 61.5672 67.5875 58.9883 67.5876Z" fill="#414042"/>
    <path d="M62.7598 53.1047H60.346V45.8632C60.346 45.5431 60.2188 45.2361 59.9925 45.0097C59.7661 44.7834 59.4591 44.6562 59.1391 44.6562C58.819 44.6562 58.512 44.7834 58.2856 45.0097C58.0593 45.2361 57.9321 45.5431 57.9321 45.8632V54.3116C57.9321 54.6317 58.0593 54.9387 58.2856 55.165C58.512 55.3914 58.819 55.5185 59.1391 55.5185H62.7598C63.0799 55.5185 63.3869 55.3914 63.6132 55.165C63.8396 54.9387 63.9667 54.6317 63.9667 54.3116C63.9667 53.9915 63.8396 53.6845 63.6132 53.4582C63.3869 53.2319 63.0799 53.1047 62.7598 53.1047Z" fill="#414042"/>
  </svg>