<svg xmlns="http://www.w3.org/2000/svg" width="120" height="120" viewBox="0 0 120 120" fill="none">
    <path d="M118.065 0H1.93548C1.42216 0 0.929864 0.203916 0.56689 0.56689C0.203916 0.929864 0 1.42216 0 1.93548V9.67742C0 10.1907 0.203916 10.683 0.56689 11.046C0.929864 11.409 1.42216 11.6129 1.93548 11.6129H7.74194V77.4193C7.7452 80.4983 8.96975 83.4502 11.1469 85.6273C13.324 87.8044 16.2759 89.029 19.3548 89.0323H78.5613L79.3573 102.694C79.3863 103.187 79.6026 103.651 79.962 103.989C80.3213 104.328 80.7965 104.516 81.2903 104.516V110.323C81.2903 110.836 81.4942 111.328 81.8572 111.691C82.2202 112.054 82.7125 112.258 83.2258 112.258H85.1613V118.065C85.1613 118.578 85.3652 119.07 85.7282 119.433C86.0911 119.796 86.5835 120 87.0968 120C87.6101 120 88.1024 119.796 88.4654 119.433C88.8283 119.07 89.0323 118.578 89.0323 118.065V112.258H90.9677C91.4811 112.258 91.9734 112.054 92.3363 111.691C92.6993 111.328 92.9032 110.836 92.9032 110.323V104.516C93.3994 104.516 93.8766 104.326 94.2364 103.984C94.5961 103.642 94.8109 103.175 94.8363 102.68L95.5427 89.0323H100.645C103.724 89.029 106.676 87.8044 108.853 85.6273C111.03 83.4502 112.255 80.4983 112.258 77.4193V11.6129H118.065C118.578 11.6129 119.07 11.409 119.433 11.046C119.796 10.683 120 10.1907 120 9.67742V1.93548C120 1.42216 119.796 0.929864 119.433 0.56689C119.07 0.203916 118.578 0 118.065 0ZM89.0323 108.387H85.1613V104.516H89.0323V108.387ZM91.0645 100.645H83.1169L81.4669 72.3169C83.1992 73.1125 85.0804 73.5321 86.9865 73.5479C88.8927 73.5638 90.7806 73.1756 92.5258 72.4089L91.0645 100.645ZM87.0968 69.6774C84.8667 69.6747 82.7057 68.9032 80.9781 67.493C79.2505 66.0827 78.062 64.1199 77.6129 61.9355H96.5806C96.1316 64.1199 94.943 66.0827 93.2155 67.493C91.4879 68.9032 89.3269 69.6747 87.0968 69.6774ZM77.6129 58.0645C78.0595 55.8789 79.2473 53.9145 80.9755 52.5038C82.7036 51.0931 84.866 50.3226 87.0968 50.3226C89.3276 50.3226 91.4899 51.0931 93.2181 52.5038C94.9462 53.9145 96.134 55.8789 96.5806 58.0645H77.6129ZM108.387 77.4193C108.385 79.4719 107.568 81.4398 106.117 82.8912C104.666 84.3426 102.698 85.159 100.645 85.1613H95.7435L96.5419 69.6992C98.4646 67.8293 99.789 65.4309 100.347 62.8078C100.906 60.1846 100.673 57.4547 99.679 54.9639C98.6847 52.473 96.9735 50.3333 94.7622 48.8158C92.5509 47.2982 89.9389 46.4711 87.2572 46.4392C84.5754 46.4073 81.9445 47.1721 79.6977 48.6366C77.4509 50.1011 75.6893 52.1995 74.6361 54.666C73.5829 57.1325 73.2854 59.8561 73.7812 62.4918C74.2772 65.1275 75.5442 67.5567 77.4218 69.4718L78.3363 85.1613H19.3548C17.3021 85.1594 15.3341 84.3431 13.8826 82.8916C12.4311 81.4401 11.6148 79.4721 11.6129 77.4193V11.6129H108.387V77.4193ZM116.129 7.74194H3.87097V3.87097H116.129V7.74194Z" fill="#7A7D8D"/>
  </svg>