<svg width="17" height="14" viewBox="0 0 17 14" fill="none" xmlns="http://www.w3.org/2000/svg">
<path d="M14.45 0H2.55C1.8737 0 1.2251 0.276562 0.746878 0.768845C0.26866 1.26113 0 1.92881 0 2.625V11.375C0 12.0712 0.26866 12.7389 0.746878 13.2312C1.2251 13.7234 1.8737 14 2.55 14H14.45C15.1263 14 15.7749 13.7234 16.2531 13.2312C16.7313 12.7389 17 12.0712 17 11.375V2.625C17 1.92881 16.7313 1.26113 16.2531 0.768845C15.7749 0.276562 15.1263 0 14.45 0ZM14.45 1.75L8.925 5.66125C8.79578 5.73805 8.64921 5.77848 8.5 5.77848C8.35079 5.77848 8.20422 5.73805 8.075 5.66125L2.55 1.75H14.45Z" fill="#414042"/>
</svg>
