<svg xmlns="http://www.w3.org/2000/svg" width="90" height="120" viewBox="0 0 90 120" fill="none">
    <path d="M82.258 30.9679H6.77419C4.97817 30.9699 3.25628 31.6842 1.98631 32.9542C0.71633 34.2242 0.00198515 35.9461 0 37.7421V113.226C0.00198515 115.022 0.71633 116.744 1.98631 118.014C3.25628 119.284 4.97817 119.998 6.77419 120H82.258C84.054 119.998 85.7759 119.284 87.0458 118.014C88.3158 116.744 89.0302 115.022 89.0322 113.226V37.7421C89.0302 35.9461 88.3158 34.2242 87.0458 32.9542C85.7759 31.6842 84.054 30.9699 82.258 30.9679ZM85.1612 113.226C85.1605 113.996 84.8545 114.734 84.3102 115.278C83.7658 115.822 83.0277 116.128 82.258 116.129H6.77419C6.0044 116.128 5.26633 115.822 4.72201 115.278C4.17768 114.734 3.8716 113.996 3.87096 113.226V37.7421C3.8716 36.9723 4.17768 36.2342 4.72201 35.6899C5.26633 35.1456 6.0044 34.8395 6.77419 34.8389H82.258C83.0277 34.8395 83.7658 35.1456 84.3102 35.6899C84.8545 36.2342 85.1605 36.9723 85.1612 37.7421V113.226Z" fill="#7A7D8D"/>
    <path d="M54.1937 48.3871C54.1937 46.4731 53.6261 44.6021 52.5628 43.0106C51.4994 41.4192 49.988 40.1788 48.2197 39.4464C46.4513 38.7139 44.5055 38.5223 42.6283 38.8957C40.7511 39.2691 39.0267 40.1908 37.6733 41.5442C36.3199 42.8976 35.3982 44.6219 35.0248 46.4992C34.6514 48.3764 34.8431 50.3222 35.5755 52.0905C36.308 53.8588 37.5484 55.3702 39.1398 56.4336C40.7312 57.497 42.6023 58.0645 44.5163 58.0645C47.082 58.0617 49.5418 57.0411 51.3561 55.2269C53.1703 53.4127 54.1908 50.9529 54.1937 48.3871ZM44.5163 54.1936C43.3679 54.1936 42.2453 53.853 41.2904 53.215C40.3355 52.577 39.5913 51.6701 39.1518 50.6092C38.7123 49.5482 38.5974 48.3807 38.8214 47.2543C39.0454 46.128 39.5985 45.0934 40.4105 44.2814C41.2225 43.4693 42.2572 42.9163 43.3835 42.6923C44.5098 42.4682 45.6773 42.5832 46.7383 43.0227C47.7993 43.4621 48.7061 44.2064 49.3442 45.1612C49.9822 46.1161 50.3227 47.2387 50.3227 48.3871C50.3209 49.9265 49.7086 51.4024 48.6201 52.4909C47.5315 53.5795 46.0557 54.1918 44.5163 54.1936Z" fill="#7A7D8D"/>
    <path d="M55.1612 58.0646H33.8709C32.0748 58.0666 30.353 58.7809 29.083 60.0509C27.813 61.3209 27.0987 63.0427 27.0967 64.8388V80.3226C27.099 81.9509 27.6868 83.524 28.7528 84.7547C29.8188 85.9855 31.2919 86.7919 32.9031 87.0266V110.323C32.9031 110.836 33.107 111.328 33.47 111.691C33.833 112.054 34.3253 112.258 34.8386 112.258H54.1934C54.7067 112.258 55.199 112.054 55.562 111.691C55.925 111.328 56.1289 110.836 56.1289 110.323V87.0266C57.7401 86.7919 59.2132 85.9855 60.2792 84.7547C61.3452 83.524 61.933 81.9509 61.9353 80.3226V64.8388C61.9334 63.0427 61.219 61.3209 59.949 60.0509C58.6791 58.7809 56.9572 58.0666 55.1612 58.0646ZM52.2579 108.387H46.4515V96.7742C46.4515 96.2609 46.2476 95.7686 45.8846 95.4056C45.5216 95.0426 45.0293 94.8387 44.516 94.8387C44.0027 94.8387 43.5104 95.0426 43.1474 95.4056C42.7844 95.7686 42.5805 96.2609 42.5805 96.7742V108.387H36.7741V87.0968H52.2579V108.387ZM58.0644 80.3226C58.0632 80.9223 57.8766 81.5069 57.5301 81.9964C57.1835 82.4858 56.6941 82.8561 56.1289 83.0565V69.6775C56.1289 69.1641 55.925 68.6718 55.562 68.3089C55.199 67.9459 54.7067 67.742 54.1934 67.742C53.6801 67.742 53.1878 67.9459 52.8248 68.3089C52.4619 68.6718 52.2579 69.1641 52.2579 69.6775V83.2258H36.7741V69.6775C36.7741 69.1641 36.5702 68.6718 36.2072 68.3089C35.8442 67.9459 35.3519 67.742 34.8386 67.742C34.3253 67.742 33.833 67.9459 33.47 68.3089C33.107 68.6718 32.9031 69.1641 32.9031 69.6775V83.0565C32.3379 82.8561 31.8485 82.4858 31.502 81.9964C31.1555 81.5069 30.9688 80.9223 30.9676 80.3226V64.8388C30.9683 64.069 31.2744 63.3309 31.8187 62.7866C32.363 62.2423 33.1011 61.9362 33.8709 61.9355H55.1612C55.9309 61.9362 56.669 62.2423 57.2133 62.7866C57.7577 63.3309 58.0637 64.069 58.0644 64.8388V80.3226Z" fill="#7A7D8D"/>
    <path d="M17.4195 17.4195H21.2905V27.0969C21.2905 27.6102 21.4944 28.1025 21.8573 28.4655C22.2203 28.8285 22.7126 29.0324 23.2259 29.0324H34.8388C35.3521 29.0324 35.8444 28.8285 36.2074 28.4655C36.5704 28.1025 36.7743 27.6102 36.7743 27.0969V17.4195H40.6453C41.0155 17.4195 41.3779 17.3134 41.6896 17.1137C42.0013 16.9139 42.2491 16.629 42.4038 16.2927C42.5585 15.9564 42.6135 15.5828 42.5623 15.2161C42.511 14.8495 42.3557 14.5053 42.1148 14.2242L30.5019 0.675872C30.3202 0.463891 30.0948 0.293731 29.8411 0.177068C29.5875 0.0604043 29.3116 0 29.0324 0C28.7532 0 28.4773 0.0604043 28.2236 0.177068C27.97 0.293731 27.7446 0.463891 27.5629 0.675872L15.95 14.2242C15.709 14.5053 15.5537 14.8495 15.5025 15.2161C15.4513 15.5828 15.5063 15.9564 15.6609 16.2927C15.8156 16.629 16.0635 16.9139 16.3752 17.1137C16.6869 17.3134 17.0493 17.4195 17.4195 17.4195ZM29.0324 4.90974L36.4371 13.5485H34.8388C34.3255 13.5485 33.8332 13.7524 33.4702 14.1154C33.1073 14.4784 32.9033 14.9707 32.9033 15.484V25.1614H25.1614V15.484C25.1614 14.9707 24.9575 14.4784 24.5945 14.1154C24.2316 13.7524 23.7393 13.5485 23.2259 13.5485H21.6277L29.0324 4.90974Z" fill="#7A7D8D"/>
    <path d="M58.5302 28.3566C58.7119 28.5686 58.9373 28.7388 59.1909 28.8554C59.4446 28.9721 59.7205 29.0325 59.9997 29.0325C60.2789 29.0325 60.5548 28.9721 60.8084 28.8554C61.0621 28.7388 61.2875 28.5686 61.4692 28.3566L73.0821 14.8082C73.323 14.5272 73.4783 14.183 73.5295 13.8163C73.5808 13.4497 73.5258 13.0761 73.3711 12.7398C73.2164 12.4035 72.9686 12.1185 72.6569 11.9188C72.3452 11.7191 71.9827 11.613 71.6126 11.613H67.7416V1.9356C67.7416 1.42228 67.5377 0.929985 67.1747 0.567011C66.8117 0.204038 66.3194 0.00012207 65.8061 0.00012207H54.1932C53.6799 0.00012207 53.1876 0.204038 52.8246 0.567011C52.4617 0.929985 52.2577 1.42228 52.2577 1.9356V11.613H48.3868C48.0166 11.613 47.6542 11.7191 47.3425 11.9188C47.0308 12.1185 46.7829 12.4035 46.6282 12.7398C46.4736 13.0761 46.4186 13.4497 46.4698 13.8163C46.521 14.183 46.6763 14.5272 46.9173 14.8082L58.5302 28.3566ZM54.1932 15.484C54.7065 15.484 55.1988 15.2801 55.5618 14.9171C55.9248 14.5541 56.1287 14.0618 56.1287 13.5485V3.87108H63.8706V13.5485C63.8706 14.0618 64.0746 14.5541 64.4375 14.9171C64.8005 15.2801 65.2928 15.484 65.8061 15.484H67.4043L59.9997 24.1228L52.595 15.484H54.1932Z" fill="#7A7D8D"/>
  </svg>