<svg xmlns="http://www.w3.org/2000/svg" width="60" height="40" viewBox="0 0 60 40" fill="none">
    <path opacity="0.5" d="M59.8275 19.19C59.74 18.9925 57.6225 14.295 52.915 9.5875C46.6425 3.315 38.72 0 30 0C21.28 0 13.3575 3.315 7.08498 9.5875C2.37748 14.295 0.249976 19 0.172476 19.19C0.058759 19.4458 0 19.7226 0 20.0025C0 20.2824 0.058759 20.5592 0.172476 20.815C0.259976 21.0125 2.37748 25.7075 7.08498 30.415C13.3575 36.685 21.28 40 30 40C38.72 40 46.6425 36.685 52.915 30.415C57.6225 25.7075 59.74 21.0125 59.8275 20.815C59.9412 20.5592 60 20.2824 60 20.0025C60 19.7226 59.9412 19.4458 59.8275 19.19ZM30 30C28.0222 30 26.0888 29.4135 24.4443 28.3147C22.7998 27.2159 21.5181 25.6541 20.7612 23.8268C20.0043 21.9996 19.8063 19.9889 20.1921 18.0491C20.578 16.1093 21.5304 14.3275 22.9289 12.9289C24.3274 11.5304 26.1093 10.578 28.0491 10.1921C29.9889 9.80629 31.9995 10.0043 33.8268 10.7612C35.6541 11.5181 37.2159 12.7998 38.3147 14.4443C39.4135 16.0888 40 18.0222 40 20C40 22.6522 38.9464 25.1957 37.071 27.0711C35.1957 28.9464 32.6521 30 30 30Z" fill="#004FAC"/>
  </svg>