<svg xmlns="http://www.w3.org/2000/svg" width="31" height="24" viewBox="0 0 31 24" fill="none">
    <path d="M8.68887 11.9999C11.2294 11.9999 13.2889 9.80207 13.2889 7.09085C13.2889 4.37964 11.2294 2.18176 8.68887 2.18176C6.14836 2.18176 4.08887 4.37964 4.08887 7.09085C4.08887 9.80207 6.14836 11.9999 8.68887 11.9999Z" fill="#414042"/>
    <path d="M13.9278 14.7273C12.1287 13.7523 10.143 13.3636 8.68889 13.3636C5.84072 13.3636 0 15.2277 0 18.9546V21.8182H9.58333V20.7225C9.58333 19.4271 10.0944 18.1282 10.9889 17.0455C11.7025 16.1809 12.7017 15.3784 13.9278 14.7273Z" fill="#414042"/>
    <path d="M20.7001 14.1818C17.3734 14.1818 10.7334 16.3745 10.7334 20.7272V23.9999H30.6667V20.7272C30.6667 16.3745 24.0268 14.1818 20.7001 14.1818Z" fill="#414042"/>
    <path d="M20.7001 12C23.8052 12 26.3223 9.31371 26.3223 6C26.3223 2.68629 23.8052 0 20.7001 0C17.595 0 15.0779 2.68629 15.0779 6C15.0779 9.31371 17.595 12 20.7001 12Z" fill="#414042"/>
  </svg>