<svg width="30" height="30" viewBox="0 0 30 30" fill="none" xmlns="http://www.w3.org/2000/svg">
    <rect width="30" height="30" rx="4" fill="#D7D8DD"/>
    <path d="M9.51665 15C11.422 15 12.9667 13.3516 12.9667 11.3182C12.9667 9.28476 11.422 7.63635 9.51665 7.63635C7.61127 7.63635 6.06665 9.28476 6.06665 11.3182C6.06665 13.3516 7.61127 15 9.51665 15Z" fill="#5E6278"/>
    <path d="M13.4458 17.0454C12.0965 16.3142 10.6072 16.0227 9.51667 16.0227C7.38054 16.0227 3 17.4208 3 20.2159V22.3636H10.1875V21.5419C10.1875 20.5703 10.5708 19.5961 11.2417 18.7841C11.7769 18.1357 12.5263 17.5338 13.4458 17.0454Z" fill="#5E6278"/>
    <path d="M18.525 16.6364C16.03 16.6364 11.05 18.2809 11.05 21.5454V24H26V21.5454C26 18.2809 21.0201 16.6364 18.525 16.6364Z" fill="#5E6278"/>
    <path d="M18.525 15C20.8538 15 22.7417 12.9853 22.7417 10.5C22.7417 8.01472 20.8538 6 18.525 6C16.1962 6 14.3083 8.01472 14.3083 10.5C14.3083 12.9853 16.1962 15 18.525 15Z" fill="#5E6278"/>
    </svg>
    