<svg width="15" height="14" viewBox="0 0 15 14" fill="none" xmlns="http://www.w3.org/2000/svg">
<path id="Vector" d="M14.6896 6.8853L7.87425 0.153321C7.82518 0.104718 7.76689 0.0661594 7.70273 0.0398506C7.63856 0.0135419 7.56978 0 7.50031 0C7.43084 0 7.36206 0.0135419 7.29789 0.0398506C7.23373 0.0661594 7.17544 0.104718 7.12637 0.153321L0.311065 6.8853C0.112513 7.08157 0 7.34816 0 7.62621C0 8.20356 0.474871 8.67297 1.05895 8.67297H1.77704V13.4766C1.77704 13.7661 2.01365 14 2.30652 14H6.44136V10.3363H8.29452V14H12.6941C12.987 14 13.2236 13.7661 13.2236 13.4766V8.67297H13.9417C14.223 8.67297 14.4927 8.56339 14.6912 8.36548C15.1032 7.95659 15.1032 7.29419 14.6896 6.8853Z" fill="#414042"/>
</svg>
