<svg xmlns="http://www.w3.org/2000/svg" width="120" height="120" viewBox="0 0 120 120" fill="none">
    <path d="M81.2901 30.9677C81.2901 26.7569 80.0415 22.6406 77.7021 19.1395C75.3626 15.6383 72.0376 12.9095 68.1473 11.298C64.257 9.68662 59.9762 9.265 55.8463 10.0865C51.7163 10.908 47.9228 12.9357 44.9453 15.9132C41.9678 18.8907 39.9401 22.6843 39.1186 26.8142C38.2971 30.9441 38.7187 35.2249 40.3301 39.1152C41.9415 43.0055 44.6704 46.3306 48.1715 48.67C51.6727 51.0094 55.789 52.2581 59.9998 52.2581C65.6444 52.2517 71.0559 50.0065 75.0473 46.0152C79.0386 42.0239 81.2837 36.6123 81.2901 30.9677ZM42.5804 30.9677C42.5804 27.5225 43.6021 24.1547 45.5161 21.2901C47.4302 18.4255 50.1507 16.1928 53.3337 14.8743C56.5167 13.5559 60.0191 13.211 63.3982 13.8831C66.7772 14.5552 69.881 16.2142 72.3171 18.6504C74.7533 21.0865 76.4123 24.1904 77.0845 27.5694C77.7566 30.9484 77.4116 34.4509 76.0932 37.6338C74.7748 40.8168 72.5421 43.5373 69.6775 45.4514C66.8129 47.3655 63.445 48.3871 59.9998 48.3871C55.3815 48.3819 50.9538 46.545 47.6882 43.2794C44.4225 40.0137 42.5856 35.586 42.5804 30.9677Z" fill="#7A7D8D"/>
    <path d="M119.591 116.877L103.004 95.55C103.001 95.5476 103.001 95.5452 102.999 95.5427L92.4942 82.0379C92.3137 81.805 92.0822 81.6166 91.8176 81.487C91.553 81.3574 91.2622 81.2901 90.9676 81.2903H67.0982C76.1538 69.5371 92.903 46.0258 92.903 32.9032C92.903 14.7605 78.1426 0 59.9998 0C41.8571 0 27.0966 14.7605 27.0966 32.9032C27.0966 46.0258 43.8458 69.5371 52.9014 81.2903H29.0321C28.7374 81.2901 28.4467 81.3574 28.182 81.487C27.9174 81.6166 27.686 81.805 27.5055 82.0379L17.0006 95.5427C16.9982 95.5452 16.9982 95.5476 16.9958 95.55L0.408685 116.877C0.185922 117.162 0.0479177 117.505 0.0103979 117.865C-0.0271219 118.226 0.0373513 118.59 0.196471 118.915C0.355591 119.241 0.602958 119.515 0.910386 119.707C1.21781 119.899 1.57294 120 1.9353 120H118.064C118.427 120 118.782 119.899 119.089 119.707C119.397 119.515 119.644 119.241 119.803 118.915C119.962 118.59 120.027 118.226 119.989 117.865C119.952 117.505 119.814 117.162 119.591 116.877ZM46.1006 65.3008C36.2006 50.7048 30.9676 39.5032 30.9676 32.9032C30.9676 25.2034 34.0263 17.8189 39.4709 12.3743C44.9155 6.92971 52.3 3.87097 59.9998 3.87097C67.6997 3.87097 75.0841 6.92971 80.5287 12.3743C85.9733 17.8189 89.0321 25.2034 89.0321 32.9032C89.0321 39.5032 83.799 50.7048 73.899 65.3008C68.2861 73.5774 62.6127 80.7919 59.9998 84.0339C57.3869 80.7919 51.7135 73.5774 46.1006 65.3008ZM51.2224 85.1613H55.9329C57.3676 86.9589 58.3087 88.0911 58.5143 88.3379C58.696 88.5554 58.9232 88.7303 59.1799 88.8504C59.4365 88.9704 59.7164 89.0326 59.9998 89.0326C60.2832 89.0326 60.5631 88.9704 60.8198 88.8504C61.0765 88.7303 61.3037 88.5554 61.4853 88.3379C61.6909 88.0911 62.6321 86.9589 64.0667 85.1613H90.0216L97.5482 94.8387H45.8635L51.2224 85.1613ZM29.978 85.1613H38.5764L31.6643 94.8387H22.4514L29.978 85.1613ZM5.89336 116.129L13.42 106.452H78.0797L82.2264 116.129H5.89336ZM86.4361 116.129L81.1329 103.754C80.9838 103.406 80.7358 103.109 80.4197 102.901C80.1037 102.692 79.7333 102.581 79.3547 102.581H16.4297L19.4417 98.7097H32.6611C32.9692 98.7095 33.2727 98.6359 33.5466 98.4949C33.8205 98.354 34.0569 98.1498 34.2361 97.8992L43.3353 85.1613H46.7974L40.8869 95.8379C40.7241 96.1325 40.6409 96.4646 40.6456 96.8012C40.6503 97.1378 40.7427 97.4674 40.9137 97.7574C41.0847 98.0473 41.3284 98.2877 41.6207 98.4547C41.913 98.6217 42.2438 98.7096 42.5805 98.7097H100.558L103.57 102.581H89.0321C88.6929 102.58 88.3597 102.669 88.0658 102.838C87.7718 103.008 87.5275 103.251 87.3572 103.544C87.1869 103.838 87.0966 104.17 87.0955 104.51C87.0944 104.849 87.1823 105.182 87.3506 105.477L93.4377 116.129H86.4361ZM97.8966 116.129L92.3684 106.452H106.58L114.106 116.129H97.8966Z" fill="#7A7D8D"/>
  </svg>