<svg width="11" height="14" viewBox="0 0 11 14" fill="none" xmlns="http://www.w3.org/2000/svg">
<path d="M5.49976 6.29998C6.0693 6.29998 6.53101 5.82988 6.53101 5.24998C6.53101 4.67008 6.0693 4.19999 5.49976 4.19999C4.93021 4.19999 4.46851 4.67008 4.46851 5.24998C4.46851 5.82988 4.93021 6.29998 5.49976 6.29998Z" fill="#414042"/>
<path d="M5.5 7.01022e-09C4.05079 -7.37726e-05 2.66011 0.582229 1.63023 1.62035C0.600346 2.65847 0.0144921 4.0685 0 5.54398C0 9.37997 4.84688 13.65 5.05313 13.832C5.17765 13.9404 5.33613 14 5.5 14C5.66387 14 5.82235 13.9404 5.94687 13.832C6.1875 13.65 11 9.37997 11 5.54398C10.9855 4.0685 10.3997 2.65847 9.36977 1.62035C8.33989 0.582229 6.94921 -7.37726e-05 5.5 7.01022e-09ZM5.5 7.69998C5.02409 7.69998 4.55886 7.55629 4.16316 7.28708C3.76745 7.01787 3.45904 6.63523 3.27691 6.18755C3.09479 5.73988 3.04714 5.24726 3.13999 4.77201C3.23283 4.29676 3.462 3.86021 3.79852 3.51758C4.13504 3.17494 4.5638 2.9416 5.03056 2.84707C5.49733 2.75253 5.98115 2.80105 6.42083 2.98649C6.86052 3.17192 7.23632 3.48594 7.50072 3.88884C7.76513 4.29174 7.90625 4.76542 7.90625 5.24998C7.90625 5.89976 7.65273 6.52293 7.20148 6.98239C6.75022 7.44185 6.13818 7.69998 5.5 7.69998Z" fill="#414042"/>
</svg>
