<svg xmlns="http://www.w3.org/2000/svg" width="87" height="60" viewBox="0 0 87 60" fill="none">
    <path d="M18.2645 40.0776C17.9862 40.4812 17.9471 41.004 18.1631 41.4439C18.3791 41.8846 18.8151 42.1748 19.3048 42.202C19.7944 42.2298 20.2609 41.9913 20.5253 41.5785C25.2425 34.4387 33.229 30.1437 41.786 30.145C42.5355 30.145 43.1431 29.5374 43.1431 28.7879C43.1431 28.0385 42.5355 27.4309 41.786 27.4309C32.3192 27.4289 23.4832 32.1792 18.2645 40.0776Z" fill="#414042"/>
    <path d="M85.4935 57.2858H77.3513V55.6465C77.3831 46.8549 73.7977 38.437 67.4366 32.3681C67.09 32.0176 66.5805 31.8824 66.106 32.0156C65.6316 32.1481 65.2658 32.5278 65.1518 33.0075C65.0372 33.4872 65.1923 33.9908 65.556 34.3235C71.3818 39.8835 74.6657 47.5937 74.6372 55.6465V57.2858H12.2134V55.6465C12.2313 39.3216 25.4611 26.0918 41.786 26.0739H45.0646C47.5852 26.0726 50.0965 26.3919 52.5363 27.0241C53.0127 27.1665 53.5289 27.0373 53.8814 26.6868C54.2346 26.3369 54.3678 25.8221 54.2286 25.3443C54.0895 24.8673 53.7005 24.5041 53.2148 24.3981C51.3409 23.9144 49.4266 23.601 47.4964 23.4605V19.2887C47.4964 18.5393 46.8888 17.9316 46.1394 17.9316H40.7112C39.9618 17.9316 39.3542 18.5393 39.3542 19.2887V23.4605C22.5257 24.7493 9.52181 38.769 9.49928 55.6465V57.2858H1.35704C0.60762 57.2858 0 57.8934 0 58.6428C0 59.3923 0.60762 59.9999 1.35704 59.9999H85.4935C86.243 59.9999 86.8506 59.3923 86.8506 58.6428C86.8506 57.8934 86.243 57.2858 85.4935 57.2858ZM42.0682 20.6457H44.7823V23.3598H42.0682V20.6457Z" fill="#414042"/>
    <path d="M57.449 24.5811C55.5288 25.9236 54.3546 28.0936 54.2817 30.436C54.2817 31.1854 54.8894 31.793 55.6388 31.793C56.3882 31.793 56.9958 31.1854 56.9958 30.436C56.9958 28.6184 57.9931 27.7285 59.2567 26.6008C61.1783 25.2563 62.3524 23.0836 62.424 20.7399C62.3524 18.3956 61.1783 16.2235 59.2567 14.8797C57.9931 13.752 56.9958 12.8621 56.9958 11.0465C56.9958 9.23026 57.9931 8.34169 59.2567 7.21391C61.1783 5.87145 62.3531 3.70006 62.424 1.35704C62.424 0.60762 61.8164 0 61.0669 0C60.3175 0 59.7099 0.60762 59.7099 1.35704C59.7099 3.17129 58.7127 4.06052 57.449 5.18829C55.5268 6.53076 54.3526 8.70282 54.2817 11.0465C54.3533 13.3895 55.5275 15.5616 57.449 16.9047C58.7127 18.0325 59.7099 18.9224 59.7099 20.7399C59.7099 22.5568 58.7127 23.4467 57.449 24.5811Z" fill="#414042"/>
    <path d="M65.5911 16.9047C66.8548 18.0325 67.852 18.9224 67.852 20.7399C67.852 22.5568 66.8548 23.454 65.5911 24.5758C63.6689 25.9196 62.4947 28.0917 62.4238 30.436C62.4238 31.1854 63.0314 31.793 63.7809 31.793C64.5303 31.793 65.1379 31.1854 65.1379 30.436C65.1379 28.6184 66.1351 27.7285 67.3988 26.6008C69.3203 25.2563 70.4945 23.0836 70.5661 20.7399C70.4945 18.3956 69.3203 16.2235 67.3988 14.8797C66.1351 13.752 65.1379 12.8621 65.1379 11.0465C65.1379 9.23026 66.1351 8.34169 67.3988 7.21391C69.3203 5.87145 70.4952 3.70006 70.5661 1.35704C70.5661 0.60762 69.9584 0 69.209 0C68.4596 0 67.852 0.60762 67.852 1.35704C67.852 3.17129 66.8548 4.06052 65.5911 5.18829C63.6689 6.53076 62.4947 8.70282 62.4238 11.0465C62.4954 13.3895 63.6695 15.5616 65.5911 16.9047Z" fill="#414042"/>
    <path d="M73.7335 16.9047C74.9971 18.0325 75.9943 18.9224 75.9943 20.7399C75.9943 22.5568 74.9971 23.454 73.7335 24.5758C71.8112 25.9196 70.6371 28.0917 70.5662 30.436C70.5662 31.1854 71.1738 31.793 71.9232 31.793C72.6726 31.793 73.2802 31.1854 73.2802 30.436C73.2802 28.6184 74.2775 27.7285 75.5411 26.6008C77.4627 25.2563 78.6368 23.0836 78.7084 20.7399C78.6368 18.3956 77.4627 16.2235 75.5411 14.8797C74.2775 13.752 73.2802 12.8621 73.2802 11.0465C73.2802 9.23026 74.2775 8.34169 75.5411 7.21391C77.4627 5.87145 78.6375 3.70006 78.7084 1.35704C78.7084 0.60762 78.1008 0 77.3514 0C76.6019 0 75.9943 0.60762 75.9943 1.35704C75.9943 3.17129 74.9971 4.06052 73.7335 5.18829C71.8112 6.53076 70.6371 8.70282 70.5662 11.0465C70.6377 13.3895 71.8119 15.5616 73.7335 16.9047Z" fill="#414042"/>
  </svg>