<svg xmlns="http://www.w3.org/2000/svg" width="25" height="20" viewBox="0 0 25 20" fill="none">
    <path d="M23.0263 16.4706C23.5332 16.4708 24.0205 16.6454 24.3874 16.9581C24.7542 17.2709 24.9724 17.6978 24.9967 18.1505C25.0211 18.6032 24.8497 19.0469 24.5182 19.3896C24.1866 19.7324 23.7203 19.948 23.2158 19.9918L23.0263 20H1.97368C1.46682 19.9998 0.979481 19.8252 0.612649 19.5125C0.245818 19.1997 0.0276158 18.7728 0.00325755 18.3201C-0.0211007 17.8674 0.150252 17.4237 0.48181 17.0809C0.813367 16.7382 1.27971 16.5226 1.78421 16.4788L1.97368 16.4706H23.0263ZM23.0263 8.23529C23.5498 8.23529 24.0518 8.42122 24.4219 8.75216C24.7921 9.08311 25 9.53197 25 10C25 10.468 24.7921 10.9169 24.4219 11.2478C24.0518 11.5788 23.5498 11.7647 23.0263 11.7647H1.97368C1.45023 11.7647 0.948216 11.5788 0.578079 11.2478C0.207941 10.9169 0 10.468 0 10C0 9.53197 0.207941 9.08311 0.578079 8.75216C0.948216 8.42122 1.45023 8.23529 1.97368 8.23529H23.0263ZM23.0263 0C23.5498 0 24.0518 0.185924 24.4219 0.51687C24.7921 0.847817 25 1.29668 25 1.76471C25 2.23274 24.7921 2.6816 24.4219 3.01254C24.0518 3.34349 23.5498 3.52941 23.0263 3.52941H1.97368C1.45023 3.52941 0.948216 3.34349 0.578079 3.01254C0.207941 2.6816 0 2.23274 0 1.76471C0 1.29668 0.207941 0.847817 0.578079 0.51687C0.948216 0.185924 1.45023 0 1.97368 0H23.0263Z" fill="#414042"/>
  </svg>