<svg xmlns="http://www.w3.org/2000/svg" width="78" height="120" viewBox="0 0 78 120" fill="none">
    <path d="M70.6452 7.74194H48.3871V1.93548C48.3871 1.42216 48.1832 0.929864 47.8202 0.56689C47.4572 0.203916 46.9649 0 46.4516 0H30.9677C30.4544 0 29.9621 0.203916 29.5991 0.56689C29.2362 0.929864 29.0323 1.42216 29.0323 1.93548V7.74194H6.77419C4.97818 7.74392 3.25629 8.45827 1.98631 9.72824C0.716331 10.9982 0.00198515 12.7201 0 14.5161V93.871C0.00198515 95.667 0.716331 97.3889 1.98631 98.6589C3.25629 99.9288 4.97818 100.643 6.77419 100.645H29.0323V106.452C29.0323 106.965 29.2362 107.457 29.5991 107.82C29.9621 108.183 30.4544 108.387 30.9677 108.387H32.9032V118.065C32.9032 118.578 33.1071 119.07 33.4701 119.433C33.8331 119.796 34.3254 120 34.8387 120H42.5806C43.094 120 43.5863 119.796 43.9492 119.433C44.3122 119.07 44.5161 118.578 44.5161 118.065V108.387H46.4516C46.9649 108.387 47.4572 108.183 47.8202 107.82C48.1832 107.457 48.3871 106.965 48.3871 106.452V100.645H70.6452C72.4412 100.643 74.1631 99.9288 75.433 98.6589C76.703 97.3889 77.4174 95.667 77.4194 93.871V14.5161C77.4174 12.7201 76.703 10.9982 75.433 9.72824C74.1631 8.45827 72.4412 7.74392 70.6452 7.74194ZM32.9032 3.87097H44.5161V7.74194H32.9032V3.87097ZM40.6452 116.129H36.7742V108.387H40.6452V116.129ZM44.5161 104.516H32.9032V100.645H44.5161V104.516ZM73.5484 93.871C73.5478 94.6408 73.2417 95.3788 72.6973 95.9231C72.153 96.4675 71.4149 96.7736 70.6452 96.7742H6.77419C6.00441 96.7736 5.26633 96.4675 4.72201 95.9231C4.17769 95.3788 3.87161 94.6408 3.87097 93.871V14.5161C3.87161 13.7463 4.17769 13.0083 4.72201 12.4639C5.26633 11.9196 6.00441 11.6135 6.77419 11.6129H70.6452C71.4149 11.6135 72.153 11.9196 72.6973 12.4639C73.2417 13.0083 73.5478 13.7463 73.5484 14.5161V93.871Z" fill="#7A7D8D"/>
    <path d="M69.6776 13.5484H7.74212C7.2288 13.5484 6.7365 13.7523 6.37353 14.1153C6.01056 14.4783 5.80664 14.9706 5.80664 15.4839V92.9032C5.80664 93.4166 6.01056 93.9089 6.37353 94.2718C6.7365 94.6348 7.2288 94.8387 7.74212 94.8387H69.6776C70.1909 94.8387 70.6832 94.6348 71.0462 94.2718C71.4092 93.9089 71.6131 93.4166 71.6131 92.9032V15.4839C71.6131 14.9706 71.4092 14.4783 71.0462 14.1153C70.6832 13.7523 70.1909 13.5484 69.6776 13.5484ZM67.7421 90.9678H9.67761V17.4194H67.7421V90.9678Z" fill="#7A7D8D"/>
    <path d="M13.5483 23.2258C14.6172 23.2258 15.4838 22.3592 15.4838 21.2903C15.4838 20.2214 14.6172 19.3548 13.5483 19.3548C12.4793 19.3548 11.6128 20.2214 11.6128 21.2903C11.6128 22.3592 12.4793 23.2258 13.5483 23.2258Z" fill="#7A7D8D"/>
    <path d="M63.871 23.2258C64.94 23.2258 65.8065 22.3592 65.8065 21.2903C65.8065 20.2214 64.94 19.3548 63.871 19.3548C62.8021 19.3548 61.9355 20.2214 61.9355 21.2903C61.9355 22.3592 62.8021 23.2258 63.871 23.2258Z" fill="#7A7D8D"/>
    <path d="M13.5483 89.0323C14.6172 89.0323 15.4838 88.1657 15.4838 87.0968C15.4838 86.0278 14.6172 85.1613 13.5483 85.1613C12.4793 85.1613 11.6128 86.0278 11.6128 87.0968C11.6128 88.1657 12.4793 89.0323 13.5483 89.0323Z" fill="#7A7D8D"/>
    <path d="M63.871 89.0323C64.94 89.0323 65.8065 88.1657 65.8065 87.0968C65.8065 86.0278 64.94 85.1613 63.871 85.1613C62.8021 85.1613 61.9355 86.0278 61.9355 87.0968C61.9355 88.1657 62.8021 89.0323 63.871 89.0323Z" fill="#7A7D8D"/>
    <path d="M39.6776 27.0968H23.226C22.7127 27.0968 22.2204 27.3007 21.8574 27.6637C21.4944 28.0266 21.2905 28.5189 21.2905 29.0323V79.3548C21.2905 79.8682 21.4944 80.3605 21.8574 80.7234C22.2204 81.0864 22.7127 81.2903 23.226 81.2903H30.9679C31.4813 81.2903 31.9736 81.0864 32.3365 80.7234C32.6995 80.3605 32.9034 79.8682 32.9034 79.3548V60H39.6776C44.0409 60 48.2254 58.2667 51.3107 55.1814C54.3959 52.0962 56.1292 47.9116 56.1292 43.5484C56.1292 39.1851 54.3959 35.0006 51.3107 31.9153C48.2254 28.8301 44.0409 27.0968 39.6776 27.0968ZM39.6776 56.129H30.9679C30.4546 56.129 29.9623 56.3329 29.5994 56.6959C29.2364 57.0589 29.0325 57.5512 29.0325 58.0645V77.4194H25.1615V30.9677H39.6776C43.0142 30.9677 46.2142 32.2932 48.5735 34.6525C50.9328 37.0119 52.2583 40.2118 52.2583 43.5484C52.2583 46.885 50.9328 50.0849 48.5735 52.4442C46.2142 54.8036 43.0142 56.129 39.6776 56.129Z" fill="#7A7D8D"/>
    <path d="M39.6774 34.8387H30.9677C30.4544 34.8387 29.9621 35.0426 29.5991 35.4056C29.2361 35.7686 29.0322 36.2609 29.0322 36.7742V50.3226C29.0322 50.8359 29.2361 51.3282 29.5991 51.6912C29.9621 52.0542 30.4544 52.2581 30.9677 52.2581H39.6774C41.9873 52.2581 44.2027 51.3404 45.8361 49.7071C47.4694 48.0737 48.3871 45.8583 48.3871 43.5484C48.3871 41.2384 47.4694 39.0231 45.8361 37.3897C44.2027 35.7563 41.9873 34.8387 39.6774 34.8387ZM39.6774 48.3871H32.9032V38.7097H39.6774C40.9607 38.7097 42.1914 39.2195 43.0989 40.1269C44.0063 41.0343 44.5161 42.2651 44.5161 43.5484C44.5161 44.8317 44.0063 46.0624 43.0989 46.9699C42.1914 47.8773 40.9607 48.3871 39.6774 48.3871Z" fill="#7A7D8D"/>
  </svg>