<svg xmlns="http://www.w3.org/2000/svg" width="26" height="24" viewBox="0 0 26 24" fill="none">
    <path d="M3.15716 11.3658C4.90081 11.3658 6.31432 9.95232 6.31432 8.20867C6.31432 6.46502 4.90081 5.05151 3.15716 5.05151C1.41351 5.05151 0 6.46502 0 8.20867C0 9.95232 1.41351 11.3658 3.15716 11.3658Z" fill="#C13584"/>
    <path d="M8.84002 6.31432C10.5837 6.31432 11.9972 4.90081 11.9972 3.15716C11.9972 1.41351 10.5837 0 8.84002 0C7.09637 0 5.68286 1.41351 5.68286 3.15716C5.68286 4.90081 7.09637 6.31432 8.84002 6.31432Z" fill="#C13584"/>
    <path d="M16.4172 6.31432C18.1608 6.31432 19.5743 4.90081 19.5743 3.15716C19.5743 1.41351 18.1608 0 16.4172 0C14.6735 0 13.26 1.41351 13.26 3.15716C13.26 4.90081 14.6735 6.31432 16.4172 6.31432Z" fill="#C13584"/>
    <path d="M22.1 11.3658C23.8437 11.3658 25.2572 9.95232 25.2572 8.20867C25.2572 6.46502 23.8437 5.05151 22.1 5.05151C20.3564 5.05151 18.9429 6.46502 18.9429 8.20867C18.9429 9.95232 20.3564 11.3658 22.1 11.3658Z" fill="#C13584"/>
    <path d="M19.3724 14.9775C18.2737 13.6894 17.3518 12.5907 16.2405 11.3026C15.6596 10.6206 14.9145 9.9387 14.0305 9.63561C13.8915 9.58509 13.7526 9.54721 13.6137 9.52195C13.298 9.47144 12.957 9.47144 12.6287 9.47144C12.3003 9.47144 11.9594 9.47144 11.631 9.53458C11.4921 9.55984 11.3532 9.59772 11.2143 9.64824C10.3303 9.95132 9.59781 10.6333 9.00427 11.3152C7.90558 12.6033 6.98369 13.702 5.87236 14.9902C4.21801 16.6445 2.1848 18.4757 2.56366 21.0393C2.92989 22.3274 3.85178 23.6029 5.50613 23.9691C6.42802 24.1585 9.3705 23.4135 12.5024 23.4135H12.7297C15.8616 23.4135 18.8041 24.1459 19.726 23.9691C21.3803 23.6029 22.3022 22.3148 22.6685 21.0393C23.0599 18.463 21.0267 16.6319 19.3724 14.9775Z" fill="#C13584"/>
  </svg>