<svg width="120" height="120" viewBox="0 0 120 120" fill="none" xmlns="http://www.w3.org/2000/svg">
  <path d="M118.066 3.87103H89.0337V1.93551C89.0337 0.866634 88.167 0 87.0981 0H32.9037C31.8349 0 30.9682 0.866634 30.9682 1.93551V3.87103H1.93551C0.866634 3.87103 0 4.73766 0 5.80654V11.6131C0 12.682 0.866634 13.5486 1.93551 13.5486H30.9682V94.8402C30.9682 95.4054 31.2149 95.9412 31.644 96.3088L58.7412 119.535C59.4651 120.155 60.533 120.155 61.257 119.535L88.3541 96.3088C88.7842 95.9422 89.0327 95.4054 89.0337 94.8402V13.5486H118.066C119.135 13.5486 120.002 12.682 120.002 11.6131V5.80654C120.002 4.73766 119.135 3.87103 118.066 3.87103ZM3.87103 9.67757V7.74206H30.9682V9.67757H3.87103ZM85.1626 93.9499L60.0009 115.518L34.8393 93.9499V3.87103H85.1626V93.9499ZM116.131 9.67757H89.0337V7.74206H116.131V9.67757Z" fill="#7A7D8D"/>
  <path d="M60.001 54.1943C53.5877 54.1943 48.3879 59.3941 48.3879 65.8074C48.3879 72.2207 53.5877 77.4205 60.001 77.4205C66.4143 77.4205 71.6141 72.2207 71.6141 65.8074C71.6075 59.396 66.4124 54.201 60.001 54.1943ZM60.001 73.5495C55.7255 73.5495 52.259 70.0829 52.259 65.8074C52.259 61.5319 55.7255 58.0654 60.001 58.0654C64.2765 58.0654 67.7431 61.5319 67.7431 65.8074C67.7431 70.0829 64.2765 73.5495 60.001 73.5495Z" fill="#7A7D8D"/>
  <path d="M52.2589 42.5813C49.0523 42.5813 46.4524 45.1812 46.4524 48.3878C46.4524 51.5945 49.0523 54.1944 52.2589 54.1944C55.4656 54.1944 58.0655 51.5945 58.0655 48.3878C58.0655 45.1812 55.4656 42.5813 52.2589 42.5813ZM52.2589 50.3234C51.1901 50.3234 50.3234 49.4567 50.3234 48.3878C50.3234 47.319 51.1901 46.4523 52.2589 46.4523C53.3278 46.4523 54.1944 47.319 54.1944 48.3878C54.1944 49.4567 53.3278 50.3234 52.2589 50.3234Z" fill="#7A7D8D"/>
  <path d="M42.5814 52.2589C39.3748 52.2589 36.7749 54.8588 36.7749 58.0655C36.7749 61.2721 39.3748 63.872 42.5814 63.872C45.7881 63.872 48.388 61.2721 48.388 58.0655C48.388 54.8588 45.7881 52.2589 42.5814 52.2589ZM42.5814 60.001C41.5126 60.001 40.6459 59.1343 40.6459 58.0655C40.6459 56.9966 41.5126 56.1299 42.5814 56.1299C43.6503 56.1299 44.517 56.9966 44.517 58.0655C44.517 59.1343 43.6503 60.001 42.5814 60.001Z" fill="#7A7D8D"/>
  <path d="M67.7431 54.1944C70.9497 54.1944 73.5496 51.5945 73.5496 48.3878C73.5496 45.1812 70.9497 42.5813 67.7431 42.5813C64.5364 42.5813 61.9365 45.1812 61.9365 48.3878C61.9365 51.5945 64.5364 54.1944 67.7431 54.1944ZM67.7431 46.4523C68.8119 46.4523 69.6786 47.319 69.6786 48.3878C69.6786 49.4567 68.8119 50.3234 67.7431 50.3234C66.6742 50.3234 65.8076 49.4567 65.8076 48.3878C65.8076 47.319 66.6742 46.4523 67.7431 46.4523Z" fill="#7A7D8D"/>
  <path d="M77.4206 52.2589C74.2139 52.2589 71.614 54.8588 71.614 58.0655C71.614 61.2721 74.2139 63.872 77.4206 63.872C80.6272 63.872 83.2271 61.2721 83.2271 58.0655C83.2271 54.8588 80.6272 52.2589 77.4206 52.2589ZM77.4206 60.001C76.3517 60.001 75.485 59.1343 75.485 58.0655C75.485 56.9966 76.3517 56.1299 77.4206 56.1299C78.4894 56.1299 79.3561 56.9966 79.3561 58.0655C79.3561 59.1343 78.4894 60.001 77.4206 60.001Z" fill="#7A7D8D"/>

  </svg>
  