<svg xmlns="http://www.w3.org/2000/svg" width="120" height="120" viewBox="0 0 120 120" fill="none">
    <path d="M118.066 3.87103H89.0337V1.93551C89.0337 0.866634 88.167 0 87.0981 0H32.9037C31.8349 0 30.9682 0.866634 30.9682 1.93551V3.87103H1.93551C0.866634 3.87103 0 4.73766 0 5.80654V11.6131C0 12.682 0.866634 13.5486 1.93551 13.5486H30.9682V94.8402C30.9682 95.4054 31.2149 95.9412 31.644 96.3088L58.7412 119.535C59.4651 120.155 60.533 120.155 61.257 119.535L88.3541 96.3088C88.7842 95.9422 89.0327 95.4054 89.0337 94.8402V13.5486H118.066C119.135 13.5486 120.002 12.682 120.002 11.6131V5.80654C120.002 4.73766 119.135 3.87103 118.066 3.87103ZM3.87103 9.67757V7.74206H30.9682V9.67757H3.87103ZM85.1626 93.9499L60.0009 115.518L34.8393 93.9499V3.87103H85.1626V93.9499ZM116.131 9.67757H89.0337V7.74206H116.131V9.67757Z" fill="#7A7D8D"/>
  </svg>