<svg width="16" height="14" viewBox="0 0 16 14" fill="none" xmlns="http://www.w3.org/2000/svg">
<path d="M11.1616 8.98147L10.7571 9.35453C10.7571 9.35453 9.79447 10.2407 7.16782 7.82111C4.54117 5.40156 5.50384 4.51543 5.50384 4.51543L5.75806 4.2799C6.3865 3.70178 6.44605 2.77283 5.89761 2.09424L4.77762 0.708224C4.09851 -0.131783 2.78741 -0.24296 2.00964 0.473516L0.61409 1.75823C0.229204 2.114 -0.0285723 2.57353 0.00253865 3.08413C0.0825381 4.39108 0.720756 7.20181 4.27984 10.4811C8.05493 13.9581 11.5971 14.0964 13.0451 13.9713C13.5038 13.9317 13.902 13.716 14.2229 13.4195L15.4851 12.2567C16.3384 11.4718 16.0984 10.1254 15.0069 9.57606L13.3091 8.72041C12.5927 8.3597 11.7216 8.46593 11.1616 8.98147Z" fill="#414042"/>
</svg>
