<svg xmlns="http://www.w3.org/2000/svg" width="160" height="98" viewBox="0 0 160 98" fill="none">
    <path d="M10.6226 89.0909V88.7909H10.3226H2.58065C1.96268 88.7909 1.37732 88.5787 0.951865 88.2114C0.527789 87.8454 0.3 87.3593 0.3 86.8636V2.22727C0.3 1.73158 0.527789 1.24547 0.951865 0.879464C1.37732 0.512265 1.96268 0.3 2.58065 0.3H157.419C158.037 0.3 158.623 0.512265 159.048 0.879464C159.472 1.24547 159.7 1.73158 159.7 2.22727V86.8636C159.7 87.3593 159.472 87.8454 159.048 88.2114C158.623 88.5787 158.037 88.7909 157.419 88.7909H149.677H149.377V89.0909V95.7727C149.377 96.2684 149.15 96.7545 148.726 97.1205C148.3 97.4877 147.715 97.7 147.097 97.7H139.355C138.836 97.6999 138.336 97.5499 137.935 97.2794C137.534 97.0092 137.258 96.6375 137.14 96.2294L136.852 96.3128L137.14 96.2293L135.046 89.0074L134.983 88.7909H134.758H25.2419H25.0165L24.9538 89.0074L22.8603 96.2293L22.8602 96.2294C22.742 96.6375 22.4664 97.0092 22.0655 97.2794C21.6641 97.5499 21.1641 97.6999 20.6452 97.7H12.9032C12.2853 97.7 11.6999 97.4877 11.2744 97.1205C10.8504 96.7545 10.6226 96.2684 10.6226 95.7727V89.0909ZM18.629 93.8455H18.8545L18.9172 93.6289L20.2075 89.1744L20.3186 88.7909H19.9194H15.4839H15.1839V89.0909V93.5455V93.8455H15.4839H18.629ZM144.516 93.8455H144.816V93.5455V89.0909V88.7909H144.516H140.081H139.681L139.792 89.1744L141.083 93.6289L141.146 93.8455H141.371H144.516ZM154.839 84.9364H155.139V84.6364V75.7273V75.4273H154.839H5.16129H4.86129V75.7273V84.6364V84.9364H5.16129H154.839ZM154.839 71.5727H155.139V71.2727V4.45455V4.15455H154.839H5.16129H4.86129V4.45455V71.2727V71.5727H5.16129H154.839Z" fill="#7A7D8D" stroke="white" stroke-width="0.6"/>
    <path d="M74.8385 78.2546H85.161C85.779 78.2546 86.3644 78.4669 86.7898 78.8341C87.2139 79.2001 87.4417 79.6862 87.4417 80.1819C87.4417 80.6776 87.2139 81.1637 86.7898 81.5297C86.3644 81.8969 85.779 82.1091 85.161 82.1091H74.8385C74.2205 82.1091 73.6351 81.8969 73.2097 81.5297C72.7856 81.1637 72.5578 80.6776 72.5578 80.1819C72.5578 79.6862 72.7856 79.2001 73.2097 78.8341C73.6351 78.4669 74.2205 78.2546 74.8385 78.2546Z" fill="#7A7D8D" stroke="white" stroke-width="0.6"/>
  </svg>