<svg xmlns="http://www.w3.org/2000/svg" width="120" height="120" viewBox="0 0 120 120" fill="none">
    <path d="M99.9794 44.4828C89.0096 34.6003 74.7649 29.1366 60 29.1483C45.2352 29.1368 30.9905 34.6005 20.0205 44.4828C19.0684 45.3367 18.4945 46.5339 18.4251 47.811C18.3557 49.0881 18.7964 50.3405 19.6503 51.2926C20.5043 52.2447 21.7015 52.8186 22.9785 52.888C24.2556 52.9575 25.508 52.5167 26.4601 51.6628C35.6657 43.3753 47.6135 38.7895 60 38.7895C72.3864 38.7895 84.3343 43.3753 93.5399 51.6628C94.457 52.4877 95.6558 52.9291 96.8889 52.8958C98.1219 52.8626 99.2952 52.3572 100.166 51.484L100.169 51.4818C100.632 51.0183 100.995 50.4654 101.238 49.8567C101.48 49.2481 101.596 48.5965 101.578 47.9416C101.56 47.2868 101.409 46.6424 101.135 46.0477C100.86 45.4531 100.467 44.9206 99.9794 44.4828ZM97.4416 48.7548L97.4397 48.757C97.267 48.9315 97.0338 49.033 96.7884 49.0405C96.543 49.048 96.3041 48.9609 96.121 48.7972C86.2123 39.8633 73.3415 34.9232 60 34.933C46.6585 34.9234 33.7879 39.8635 23.8792 48.7972C23.7385 48.9215 23.5646 49.002 23.3788 49.0289C23.1931 49.0557 23.0035 49.0278 22.8334 48.9484C22.6632 48.8691 22.52 48.7418 22.4212 48.5822C22.3223 48.4226 22.2723 48.2377 22.2771 48.05C22.2804 47.9176 22.3108 47.7873 22.3664 47.667C22.422 47.5468 22.5017 47.4393 22.6005 47.351C32.8684 38.116 46.19 33.0065 60 33.0065C73.81 33.0065 87.1316 38.116 97.3995 47.351C97.4983 47.4393 97.5779 47.5468 97.6336 47.667C97.6892 47.7873 97.7196 47.9176 97.7229 48.05C97.7267 48.1805 97.7037 48.3103 97.6553 48.4315C97.6069 48.5528 97.5342 48.6628 97.4416 48.7548Z" fill="#7A7D8D"/>
    <path d="M90.3694 54.0025C81.947 46.6791 71.162 42.6459 60.001 42.6459C48.84 42.6459 38.0549 46.6791 29.6325 54.0025C28.6673 54.841 28.0747 56.0286 27.985 57.3041C27.8954 58.5795 28.3161 59.8383 29.1546 60.8036C29.9931 61.7689 31.1807 62.3615 32.4562 62.4511C33.7316 62.5408 34.9904 62.1201 35.9557 61.2816C42.624 55.4822 51.1635 52.2883 60.0008 52.2883C68.8382 52.2883 77.3777 55.4822 84.046 61.2816C85.0113 62.1201 86.2701 62.5408 87.5456 62.4512C88.821 62.3616 90.0087 61.769 90.8472 60.8037C91.6858 59.8385 92.1065 58.5796 92.0169 57.3041C91.9273 56.0287 91.3347 54.841 90.3694 54.0025ZM87.88 58.3169C87.7099 58.4884 87.4812 58.5893 87.2399 58.5993C86.9985 58.6093 86.7622 58.5277 86.5785 58.3709C79.2082 51.9606 69.7694 48.4302 60.0014 48.4302C50.2335 48.4302 40.7947 51.9606 33.4244 58.3709C33.2816 58.4914 33.1068 58.5679 32.9214 58.5909C32.7359 58.6139 32.5478 58.5825 32.3798 58.5006C32.2119 58.4186 32.0713 58.2896 31.9754 58.1293C31.8794 57.969 31.8321 57.7842 31.8392 57.5974C31.843 57.4668 31.874 57.3384 31.93 57.2203C31.986 57.1023 32.0659 56.9971 32.1646 56.9115C39.8849 50.1988 49.7709 46.5019 60.0014 46.5019C70.232 46.5019 80.118 50.1988 87.8383 56.9115C87.937 56.9971 88.0169 57.1023 88.0729 57.2203C88.1289 57.3384 88.1599 57.4668 88.1637 57.5974C88.1687 57.7306 88.146 57.8634 88.097 57.9874C88.0479 58.1113 87.9736 58.2237 87.8788 58.3174L87.88 58.3169Z" fill="#7A7D8D"/>
    <path d="M80.6486 63.4641C74.8088 58.7282 67.5186 56.1436 59.9999 56.1436C52.4812 56.1436 45.1909 58.7282 39.3512 63.4641C38.8517 63.8595 38.4355 64.3501 38.1268 64.9074C37.8181 65.4647 37.6228 66.0777 37.5525 66.7109C37.4821 67.3441 37.5379 67.985 37.7167 68.5965C37.8955 69.208 38.1938 69.778 38.5943 70.2735C38.9947 70.769 39.4894 71.1802 40.0498 71.4834C40.6101 71.7865 41.225 71.9756 41.8589 72.0396C42.4928 72.1037 43.1331 72.0414 43.7428 71.8565C44.3524 71.6716 44.9194 71.3676 45.4109 70.9622C49.5355 67.6129 54.6868 65.7848 60 65.7848C65.3132 65.7848 70.4645 67.6129 74.5891 70.9622C75.3129 71.5479 76.1908 71.9113 77.1167 72.0085C78.0427 72.1057 78.9769 71.9325 79.8065 71.5099C80.6361 71.0874 81.3255 70.4335 81.7913 69.6274C82.2571 68.8212 82.4794 67.8974 82.4312 66.9677C82.3955 66.2915 82.2184 65.6303 81.9114 65.0269C81.6043 64.4234 81.1741 63.891 80.6486 63.4641ZM78.3 67.8963C78.1342 68.065 77.9116 68.1659 77.6755 68.1796C77.4394 68.1932 77.2067 68.1185 77.0225 67.9701C72.2104 64.0616 66.1997 61.9281 60.0002 61.9281C53.8008 61.9281 47.7901 64.0616 42.978 67.9701C42.833 68.0851 42.658 68.1558 42.4739 68.1738C42.2897 68.1918 42.1043 68.1563 41.9399 68.0715C41.7754 67.9868 41.6389 67.8564 41.5468 67.696C41.4546 67.5356 41.4106 67.352 41.4202 67.1672C41.4267 67.0302 41.4623 66.896 41.5247 66.7738C41.587 66.6515 41.6746 66.5439 41.7817 66.4581C46.9343 62.28 53.3663 59.9999 60 59.9999C66.6337 59.9999 73.0657 62.28 78.2183 66.4581C78.3254 66.5439 78.413 66.6515 78.4753 66.7737C78.5376 66.8959 78.5733 67.03 78.5798 67.167C78.5875 67.3014 78.5665 67.436 78.5183 67.5617C78.47 67.6875 78.3956 67.8015 78.3 67.8963Z" fill="#7A7D8D"/>
    <path d="M102.267 17.7332C96.727 12.1341 90.1351 7.68506 82.8703 4.64182C75.6054 1.59859 67.8107 0.0211637 59.9341 0.000211504C52.0576 -0.0207407 44.2546 1.51519 36.9737 4.51974C29.6927 7.52428 23.0773 11.9382 17.5077 17.5077C11.9382 23.0773 7.52428 29.6927 4.51974 36.9737C1.51519 44.2546 -0.0207407 52.0576 0.000211504 59.9341C0.0211637 67.8107 1.59859 75.6054 4.64182 82.8703C7.68506 90.1351 12.1341 96.727 17.7332 102.267C23.273 107.866 29.8649 112.315 37.1297 115.358C44.3946 118.401 52.1894 119.979 60.0659 120C67.9424 120.021 75.7454 118.485 83.0264 115.48C90.3073 112.476 96.9227 108.062 102.492 102.492C108.062 96.9227 112.476 90.3073 115.48 83.0264C118.485 75.7454 120.021 67.9424 120 60.0659C119.979 52.1894 118.401 44.3946 115.358 37.1297C112.315 29.8649 107.866 23.273 102.267 17.7332ZM99.5408 99.5408C89.0539 110.028 74.8307 115.919 60 115.919C45.1693 115.919 30.9461 110.028 20.4592 99.5408C9.97237 89.0539 4.08091 74.8307 4.08091 60C4.08091 45.1693 9.97237 30.9461 20.4592 20.4592C30.9461 9.97237 45.1693 4.08091 60 4.08091C74.8307 4.08091 89.0539 9.97237 99.5408 20.4592C110.028 30.9461 115.919 45.1693 115.919 60C115.919 74.8307 110.028 89.0539 99.5408 99.5408Z" fill="#7A7D8D"/>
    <path d="M96.8125 23.1877C91.9882 18.3073 86.2467 14.4289 79.9182 11.7754C73.5897 9.12185 66.7991 7.74563 59.9368 7.72586C53.0746 7.70609 46.2761 9.04316 39.9324 11.6602C33.5887 14.2772 27.825 18.1225 22.9727 22.9749C18.1204 27.8274 14.2753 33.5912 11.6585 39.935C9.04167 46.2788 7.70483 53.0773 7.72483 59.9396C7.74483 66.8018 9.12127 73.5924 11.775 79.9209C14.4287 86.2493 18.3073 91.9906 23.1878 96.8147C28.0121 101.695 33.7536 105.574 40.0821 108.227C46.4106 110.881 53.2012 112.257 60.0635 112.277C66.9258 112.296 73.7242 110.959 80.0679 108.342C86.4116 105.725 92.1754 101.88 97.0277 97.0275C101.88 92.175 105.725 86.4112 108.342 80.0674C110.959 73.7236 112.295 66.9251 112.275 60.0628C112.256 53.2006 110.879 46.4099 108.225 40.0815C105.572 33.7531 101.693 28.0118 96.8125 23.1877ZM60.0002 108.206C33.4195 108.206 11.7944 86.5806 11.7944 60C11.7944 33.4193 33.4195 11.7942 60.0002 11.7942C86.5808 11.7942 108.206 33.4193 108.206 60C108.206 86.5806 86.5808 108.206 60.0002 108.206Z" fill="#7A7D8D"/>
    <path d="M60 67.7129C57.7118 67.7129 55.475 68.3915 53.5724 69.6627C51.6699 70.934 50.187 72.7409 49.3113 74.8549C48.4357 76.9689 48.2066 79.2951 48.653 81.5394C49.0994 83.7836 50.2013 85.8451 51.8193 87.4631C53.4373 89.0811 55.4987 90.183 57.743 90.6294C59.9872 91.0758 62.3134 90.8467 64.4275 89.971C66.5415 89.0954 68.3484 87.6125 69.6196 85.7099C70.8909 83.8073 71.5694 81.5705 71.5694 79.2823C71.5662 76.2149 70.3462 73.2741 68.1772 71.1051C66.0083 68.9361 63.0674 67.7162 60 67.7129ZM60 86.9952C58.4746 86.9952 56.9834 86.5429 55.715 85.6954C54.4466 84.8479 53.458 83.6433 52.8742 82.2339C52.2905 80.8246 52.1377 79.2737 52.4353 77.7776C52.7329 76.2814 53.4675 74.9071 54.5462 73.8284C55.6249 72.7498 56.9992 72.0152 58.4953 71.7176C59.9915 71.42 61.5423 71.5727 62.9517 72.1565C64.361 72.7403 65.5656 73.7288 66.4131 74.9972C67.2606 76.2656 67.713 77.7568 67.713 79.2823C67.7107 81.3272 66.8973 83.2877 65.4514 84.7336C64.0054 86.1796 62.0449 86.9929 60 86.9952Z" fill="#7A7D8D"/>
  </svg>