<svg xmlns="http://www.w3.org/2000/svg" width="20" height="20" viewBox="0 0 20 20" fill="none">
    <path fill-rule="evenodd" clip-rule="evenodd" d="M10.0114 12.7053L16.7467 19.4418C17.1041 19.7992 17.5888 20 18.0943 20C18.5997 20 19.0844 19.7992 19.4418 19.4418C19.7992 19.0844 20 18.5997 20 18.0943C20 17.5888 19.7992 17.1041 19.4418 16.7467L12.704 10.0114L19.4405 3.27611C19.6174 3.09915 19.7577 2.88908 19.8534 2.65789C19.9491 2.42671 19.9983 2.17894 19.9983 1.92873C19.9982 1.67853 19.9489 1.43078 19.8531 1.19964C19.7573 0.968504 19.6169 0.758499 19.4399 0.581618C19.2629 0.404736 19.0529 0.264443 18.8217 0.168747C18.5905 0.0730517 18.3427 0.0238281 18.0925 0.0238871C17.8423 0.023946 17.5946 0.0732862 17.3634 0.169091C17.1323 0.264895 16.9223 0.405288 16.7454 0.582253L10.0114 7.31754L3.2761 0.582253C3.10044 0.400212 2.89028 0.254978 2.6579 0.155023C2.42551 0.055069 2.17554 0.00239652 1.92258 7.98934e-05C1.66962 -0.00223673 1.41873 0.0458485 1.18456 0.14153C0.950377 0.237211 0.737599 0.378573 0.558637 0.557366C0.379675 0.736159 0.238113 0.948804 0.14221 1.18289C0.046308 1.41698 -0.00201381 1.66782 6.42879e-05 1.92079C0.00214238 2.17375 0.0545786 2.42376 0.154314 2.65624C0.254049 2.88872 0.399086 3.09902 0.580961 3.27484L7.3188 10.0114L0.582232 16.7467C0.224835 17.1041 0.0240507 17.5888 0.0240507 18.0943C0.0240507 18.5997 0.224835 19.0844 0.582232 19.4418C0.939628 19.7992 1.42436 20 1.9298 20C2.43523 20 2.91997 19.7992 3.27736 19.4418L10.0114 12.704V12.7053Z" fill="#414042"/>
  </svg>